<svg width="332" height="332" viewBox="0 0 332 332" fill="none" xmlns="http://www.w3.org/2000/svg">
<path d="M168.656 319.444C250.236 319.444 316.369 281.261 316.369 234.16C316.369 187.058 250.236 148.875 168.656 148.875C87.0762 148.875 20.9426 187.058 20.9426 234.16C20.9426 281.261 87.0762 319.444 168.656 319.444Z" fill="#0E387A" fill-opacity="0.1"/>
<path d="M159.406 304.192L293.913 226.537C295.5 225.621 295.5 224.133 293.913 223.217L183.689 159.572C182.798 159.12 181.813 158.885 180.814 158.885C179.815 158.885 178.83 159.12 177.939 159.572L43.4389 237.26C41.8453 238.177 41.8453 239.664 43.4389 240.58L153.663 304.225C154.556 304.671 155.541 304.9 156.539 304.894C157.536 304.888 158.519 304.648 159.406 304.192V304.192Z" fill="#E0E0E0"/>
<path d="M52.9605 214.333C52.5157 208.801 49.9858 199.725 43.5517 191.093C36.6726 181.843 28.2797 176.053 22.0513 178.762C16.248 181.285 18.4458 189.293 28.439 197.195C35.4442 202.746 42.715 209.957 46.6193 218.675L52.9605 229.744V214.333Z" fill="#4B7DCC"/>
<g opacity="0.2">
<path opacity="0.2" d="M52.9605 214.333C52.5157 208.801 49.9858 199.725 43.5517 191.093C36.6726 181.843 28.2797 176.053 22.0513 178.762C16.248 181.285 18.4458 189.293 28.439 197.195C35.4442 202.746 42.715 209.957 46.6193 218.675L52.9605 229.744V214.333Z" fill="black"/>
</g>
<path d="M52.4029 218.549C52.3217 218.55 52.2423 218.525 52.1757 218.479C52.1091 218.432 52.0586 218.366 52.031 218.29C46.48 202.958 34.8666 187.441 25.0594 182.202C24.9678 182.152 24.8992 182.069 24.8682 181.97C24.8372 181.871 24.8462 181.763 24.8934 181.67C24.944 181.578 25.0284 181.51 25.1287 181.479C25.2291 181.448 25.3375 181.457 25.4312 181.504C35.3912 186.816 47.144 202.527 52.7681 218.024C52.7861 218.073 52.7944 218.124 52.7925 218.176C52.7905 218.227 52.7784 218.278 52.7568 218.325C52.7352 218.372 52.7046 218.414 52.6666 218.449C52.6287 218.484 52.5842 218.511 52.5357 218.529C52.4932 218.544 52.448 218.551 52.4029 218.549Z" fill="white"/>
<path d="M55.3843 240.693C52.1657 243.222 48.3397 244.861 44.2888 245.448C37.2969 246.55 34.2093 243.21 34.2093 243.21C34.2093 243.21 36.9649 236.65 40.9356 234.81C40.9356 234.81 34.2027 236.185 28.8043 239.79C28.8043 239.79 24.5348 239.857 22.8283 233.336C22.8283 233.336 25.3582 229.419 33.8441 227.301C33.8441 227.301 28.6782 225.973 21.2281 227.898C20.6703 228.117 18.2932 219.698 17.5695 215.813C16.8457 211.929 18.4127 211.962 21.4406 211.165C24.4684 210.369 34.787 209.837 36.7126 211.511C38.6382 213.184 39.5744 218.874 39.5744 218.874C39.9219 216.602 39.9865 214.296 39.767 212.009C42.3436 211.88 44.9234 212.19 47.3963 212.925C50.8027 214.113 50.5835 215.773 50.5835 218.237C50.5971 220.732 50.255 223.216 49.5676 225.614C49.5676 225.614 51.9182 223.575 51.9979 216.079C51.9979 216.079 56.5994 220.016 58.4453 223.383C60.2912 226.749 59.8198 235.647 55.3843 240.693Z" fill="#4B7DCC"/>
<path d="M55.3843 241.085C55.3114 241.08 55.2408 241.057 55.1784 241.019C55.116 240.981 55.0637 240.929 55.0257 240.866C46.978 229.286 28.4126 215.528 20.9028 214.067C20.8009 214.045 20.7116 213.984 20.6535 213.897C20.5954 213.811 20.5729 213.705 20.5907 213.602C20.6116 213.501 20.6711 213.412 20.7566 213.353C20.8421 213.295 20.9469 213.272 21.0488 213.29C28.6848 214.777 47.8014 228.27 55.7362 240.514C55.7616 240.56 55.777 240.611 55.7813 240.663C55.7857 240.716 55.7788 240.769 55.7612 240.818C55.7437 240.868 55.7158 240.913 55.6794 240.951C55.643 240.989 55.599 241.019 55.5503 241.039C55.4993 241.067 55.4424 241.083 55.3843 241.085V241.085Z" fill="white"/>
<path d="M274.371 208.908L268.588 205.588C268.588 205.588 265.812 190.316 267.891 177.155C270.806 158.683 283.382 152.308 287.95 154.148C292.519 155.987 293.594 161.452 285.341 172.129C280.474 178.45 274.232 191.763 274.371 208.908Z" fill="#4B7DCC"/>
<g opacity="0.2">
<path opacity="0.2" d="M274.371 208.908L268.588 205.588C268.588 205.588 265.812 190.316 267.891 177.155C270.806 158.683 283.382 152.308 287.95 154.148C292.519 155.987 293.594 161.452 285.341 172.129C280.474 178.45 274.232 191.763 274.371 208.908Z" fill="black"/>
</g>
<path d="M272.273 201.57H272.333C272.441 201.554 272.538 201.496 272.603 201.409C272.669 201.323 272.698 201.214 272.685 201.106C270.295 183.808 277.247 164.858 285.062 157.222C285.14 157.145 285.185 157.041 285.186 156.931C285.187 156.822 285.145 156.716 285.068 156.638C284.992 156.559 284.887 156.515 284.778 156.513C284.668 156.512 284.563 156.554 284.484 156.631C276.516 164.406 269.438 183.662 271.868 201.219C271.881 201.317 271.929 201.406 272.004 201.471C272.079 201.536 272.174 201.571 272.273 201.57V201.57Z" fill="white"/>
<path d="M290.42 218.177C291.33 218.702 293.216 217.56 293.933 217.075C295.168 216.235 296.167 215.092 296.835 213.755C297.581 212.235 297.837 210.52 297.565 208.848C297.416 207.965 297.207 207.093 296.941 206.238C296.702 205.395 296.456 204.552 296.21 203.702C295.916 202.886 295.791 202.018 295.845 201.152C296.064 199.419 297.605 198.204 298.999 197.168C300.546 196.013 302.153 194.512 302.147 192.394C302.035 190.776 301.388 189.241 300.307 188.032C299.311 186.763 298.129 185.648 297.226 184.32C296.516 183.389 296.146 182.243 296.177 181.073C296.276 180.358 296.515 179.67 296.881 179.048C297.618 177.72 298.594 176.445 299.099 174.991C299.603 173.536 299.537 171.717 298.395 170.668C297.459 169.811 296.071 169.692 294.809 169.778C293.631 169.925 292.498 170.326 291.489 170.953C288.169 172.793 286.29 176.717 282.771 178.131C281.443 178.682 279.929 178.795 278.521 179.174C277.114 179.552 275.666 180.269 275.009 181.577C273.721 184.154 276.118 187.328 275.208 190.063C274.405 192.48 272.054 193.383 270.733 195.588C270.195 196.551 269.978 197.661 270.115 198.755C270.227 200.607 270.677 202.423 271.443 204.114C272.305 205.79 273.288 207.401 274.385 208.934C274.425 208.961 290.274 218.097 290.42 218.177Z" fill="#4B7DCC"/>
<path d="M281.031 213.177C281.086 213.175 281.14 213.163 281.19 213.14C281.241 213.118 281.286 213.085 281.323 213.045C281.361 213.005 281.39 212.958 281.41 212.907C281.429 212.855 281.438 212.801 281.436 212.746C280.772 196.378 288.468 178.304 294.052 173.052C294.133 172.977 294.18 172.873 294.183 172.764C294.187 172.654 294.147 172.548 294.072 172.467C293.997 172.387 293.894 172.34 293.784 172.336C293.675 172.333 293.568 172.373 293.488 172.447C287.764 177.806 279.896 196.179 280.58 212.779C280.582 212.835 280.596 212.89 280.62 212.941C280.645 212.991 280.679 213.037 280.721 213.074C280.763 213.111 280.812 213.139 280.866 213.157C280.919 213.175 280.975 213.182 281.031 213.177V213.177Z" fill="white"/>
<path d="M283.481 193.835C283.521 193.841 283.561 193.841 283.601 193.835C287.478 192.756 291.461 192.106 295.48 191.896C295.589 191.889 295.69 191.84 295.763 191.76C295.836 191.679 295.875 191.573 295.872 191.464C295.872 191.409 295.861 191.355 295.839 191.305C295.816 191.254 295.784 191.209 295.743 191.172C295.702 191.135 295.654 191.107 295.602 191.09C295.55 191.073 295.495 191.067 295.44 191.073C291.352 191.279 287.3 191.934 283.355 193.025C283.252 193.057 283.165 193.129 283.114 193.225C283.063 193.32 283.052 193.432 283.083 193.536C283.107 193.623 283.159 193.7 283.231 193.754C283.303 193.808 283.391 193.837 283.481 193.835V193.835Z" fill="white"/>
<path d="M54.6472 238.502C54.7305 239.64 55.0805 240.742 55.6688 241.719C56.2572 242.696 57.0673 243.521 58.0336 244.126L152.986 298.933C154.036 299.466 155.197 299.745 156.375 299.745C157.553 299.745 158.715 299.466 159.765 298.933L289.63 223.941C290.653 223.4 291.509 222.591 292.106 221.6C292.704 220.609 293.019 219.474 293.019 218.317C293.019 217.16 292.704 216.024 292.106 215.033C291.509 214.042 290.653 213.233 289.63 212.693L194.678 157.879C193.628 157.349 192.468 157.072 191.292 157.072C190.115 157.072 188.955 157.349 187.905 157.879L58.0336 232.871C57.0664 233.478 56.2558 234.304 55.6674 235.282C55.079 236.26 54.7295 237.364 54.6472 238.502V238.502Z" fill="#37474F"/>
<path d="M156.352 292.412V299.716C155.173 299.742 154.006 299.463 152.966 298.906L58.0138 244.1C57.0205 243.576 56.1839 242.798 55.5897 241.845C54.9955 240.893 54.665 239.799 54.6319 238.677C54.5988 237.554 54.8644 236.443 55.4014 235.457C55.9384 234.471 56.7277 233.645 57.6885 233.064C56.1679 234.153 56.2874 235.72 58.0338 236.762L152.986 291.569C154.018 292.131 155.177 292.422 156.352 292.412V292.412Z" fill="#263238"/>
<path d="M51.4667 232.998C50.5242 232.354 49.7456 231.499 49.1932 230.5C48.6409 229.502 48.3302 228.388 48.2861 227.247V113.962C48.3511 112.787 48.6914 111.643 49.2796 110.624C49.8679 109.604 50.6875 108.737 51.6725 108.093L181.564 33.1004C182.573 32.5691 183.693 32.2816 184.834 32.2609C185.974 32.2401 187.103 32.4867 188.131 32.9809C189.074 33.6243 189.852 34.4795 190.405 35.4781C190.957 36.4767 191.268 37.5908 191.312 38.7311V152.016C191.247 153.191 190.907 154.334 190.319 155.352C189.731 156.371 188.911 157.237 187.925 157.879L58.0337 232.871C57.0249 233.404 55.9055 233.692 54.7652 233.714C53.6248 233.736 52.4951 233.491 51.4667 232.998V232.998Z" fill="#455A64"/>
<path d="M57.6352 233.064C56.663 233.501 55.607 233.719 54.5414 233.704C53.4757 233.689 52.4263 233.441 51.4666 232.978C50.5236 232.337 49.7449 231.483 49.1934 230.485C48.642 229.487 48.3334 228.373 48.2927 227.234V113.962C48.3315 112.789 48.6723 111.646 49.2821 110.642L55.6366 114.301C55.0304 115.306 54.6878 116.448 54.6406 117.621V230.919C54.6406 232.925 55.9486 233.821 57.6352 233.064Z" fill="#263238"/>
<path d="M54.6472 117.634V230.919C54.6472 233.077 56.1611 233.954 58.0336 232.871L187.912 157.879C188.897 157.237 189.717 156.371 190.306 155.352C190.894 154.334 191.234 153.191 191.298 152.016V38.7312C191.298 36.5665 189.778 35.6967 187.912 36.7724L58.0336 111.765C57.0472 112.407 56.2263 113.274 55.6379 114.294C55.0495 115.314 54.7101 116.458 54.6472 117.634V117.634Z" fill="#37474F"/>
<path d="M58.0338 236.789L152.986 291.596C154.037 292.126 155.198 292.403 156.375 292.403C157.553 292.403 158.714 292.126 159.765 291.596L289.63 216.603C291.496 215.521 291.496 213.768 289.63 212.693L194.678 157.879C193.628 157.349 192.468 157.072 191.292 157.072C190.115 157.072 188.956 157.349 187.906 157.879L58.0338 232.871C56.1613 233.954 56.1613 235.72 58.0338 236.789Z" fill="#455A64"/>
<path d="M59.8531 118.053L185.084 45.7695C186.206 45.1055 187.115 45.6434 187.115 46.9448V145.011C187.077 145.716 186.873 146.402 186.52 147.013C186.167 147.625 185.675 148.144 185.084 148.53L59.8531 220.813C58.731 221.477 57.8213 220.933 57.8213 219.638V121.572C57.8598 120.867 58.0639 120.181 58.4169 119.569C58.7699 118.958 59.2619 118.438 59.8531 118.053V118.053Z" fill="#4B7DCC"/>
<path opacity="0.9" d="M59.8531 118.053L185.084 45.7695C186.206 45.1055 187.115 45.6434 187.115 46.9448V145.011C187.077 145.716 186.873 146.402 186.52 147.013C186.167 147.625 185.675 148.144 185.084 148.53L59.8531 220.813C58.731 221.477 57.8213 220.933 57.8213 219.638V121.572C57.8598 120.867 58.0639 120.181 58.4169 119.569C58.7699 118.958 59.2619 118.438 59.8531 118.053V118.053Z" fill="white"/>
<path d="M69.056 233.854L189.619 164.247C190.143 163.978 190.723 163.838 191.312 163.838C191.901 163.838 192.481 163.978 193.005 164.247L199.173 167.806C200.11 168.344 200.11 169.22 199.173 169.758L78.5911 239.359C78.0648 239.624 77.4838 239.762 76.8946 239.762C76.3053 239.762 75.7243 239.624 75.198 239.359L69.056 235.806C68.1132 235.269 68.1132 234.392 69.056 233.854Z" fill="#37474F"/>
<path d="M84.9455 243.024L204.612 173.968C205.137 173.703 205.717 173.565 206.305 173.565C206.893 173.565 207.473 173.703 207.998 173.968L245.926 195.88C246.862 196.424 246.862 197.301 245.926 197.872L126.406 266.848C125.879 267.113 125.298 267.251 124.709 267.251C124.12 267.251 123.539 267.113 123.013 266.848L84.9521 245.036C84.0093 244.438 84.0093 243.568 84.9455 243.024Z" fill="#263238"/>
<path d="M193.018 204.738L196.796 202.56C196.956 202.467 196.942 202.308 196.796 202.208L192.434 199.691C192.34 199.644 192.237 199.619 192.132 199.619C192.027 199.619 191.923 199.644 191.83 199.691L188.032 201.856C187.872 201.949 187.879 202.102 188.032 202.201L192.394 204.724C192.489 204.778 192.596 204.807 192.704 204.809C192.813 204.811 192.921 204.787 193.018 204.738V204.738ZM185.568 196.106L181.797 198.284C181.637 198.377 181.644 198.529 181.797 198.629L186.159 201.152C186.253 201.2 186.356 201.225 186.461 201.225C186.566 201.225 186.67 201.2 186.763 201.152L190.541 198.968C190.701 198.875 190.688 198.722 190.541 198.622L186.179 196.099C186.086 196.047 185.982 196.018 185.876 196.015C185.77 196.011 185.664 196.033 185.568 196.079V196.106ZM173.377 203.144L166.983 206.829C166.823 206.922 166.837 207.082 166.983 207.181L171.345 209.698C171.439 209.746 171.542 209.771 171.647 209.771C171.752 209.771 171.856 209.746 171.949 209.698L178.337 206.013C178.497 205.92 178.49 205.76 178.337 205.661L173.968 203.131C173.877 203.083 173.777 203.057 173.674 203.055C173.572 203.053 173.47 203.074 173.377 203.118V203.144ZM180.05 199.286L176.279 201.471C176.119 201.557 176.126 201.717 176.279 201.816L180.641 204.333C180.735 204.381 180.838 204.405 180.943 204.405C181.048 204.405 181.152 204.381 181.245 204.333L185.024 202.155C185.183 202.062 185.17 201.909 185.024 201.81L180.661 199.286C180.569 199.233 180.465 199.203 180.359 199.199C180.253 199.194 180.147 199.215 180.05 199.26V199.286ZM165.243 207.832L161.472 210.01C161.306 210.103 161.319 210.262 161.472 210.362L165.834 212.878C165.928 212.926 166.031 212.951 166.136 212.951C166.241 212.951 166.345 212.926 166.438 212.878L170.21 210.7C170.369 210.608 170.363 210.448 170.21 210.349L165.847 207.832C165.754 207.784 165.65 207.759 165.545 207.759C165.44 207.759 165.337 207.784 165.243 207.832V207.832ZM159.725 211.019L155.954 213.197C155.794 213.29 155.801 213.443 155.954 213.542L160.316 216.066C160.41 216.113 160.513 216.138 160.618 216.138C160.723 216.138 160.827 216.113 160.92 216.066L164.692 213.881C164.858 213.788 164.845 213.635 164.692 213.536L160.329 211.019C160.238 210.968 160.135 210.94 160.03 210.936C159.925 210.933 159.82 210.955 159.725 210.999V211.019ZM176.896 221.265L180.668 219.087C180.834 218.994 180.821 218.834 180.668 218.735L176.305 216.218C176.212 216.171 176.108 216.146 176.003 216.146C175.898 216.146 175.795 216.171 175.701 216.218L171.93 218.396C171.77 218.489 171.777 218.649 171.93 218.748L176.292 221.265C176.387 221.309 176.492 221.331 176.597 221.328C176.702 221.324 176.804 221.296 176.896 221.245V221.265ZM171.378 224.432L175.157 222.254C175.316 222.161 175.303 222.002 175.157 221.902L170.794 219.386C170.701 219.338 170.597 219.313 170.492 219.313C170.387 219.313 170.283 219.338 170.19 219.386L166.418 221.564C166.259 221.656 166.266 221.809 166.418 221.909L170.781 224.432C170.874 224.479 170.976 224.503 171.08 224.503C171.183 224.503 171.286 224.479 171.378 224.432V224.432ZM165.861 227.619L169.639 225.435C169.798 225.342 169.785 225.189 169.639 225.089L165.276 222.566C165.183 222.518 165.079 222.493 164.974 222.493C164.869 222.493 164.766 222.518 164.672 222.566L160.901 224.744C160.741 224.837 160.748 224.99 160.901 225.089L165.263 227.613C165.355 227.66 165.457 227.686 165.561 227.687C165.665 227.688 165.767 227.665 165.861 227.619V227.619ZM160.343 230.8L164.121 228.622C164.28 228.529 164.267 228.376 164.121 228.277L159.752 225.753C159.658 225.706 159.555 225.681 159.45 225.681C159.345 225.681 159.241 225.706 159.148 225.753L155.376 227.918C155.217 228.011 155.223 228.17 155.376 228.27L159.745 230.786C159.837 230.835 159.939 230.862 160.042 230.864C160.146 230.866 160.249 230.844 160.343 230.8V230.8ZM187.5 207.918L191.279 205.74C191.438 205.647 191.425 205.495 191.279 205.395L186.909 202.872C186.817 202.825 186.714 202.801 186.611 202.801C186.507 202.801 186.404 202.825 186.312 202.872L182.534 205.056C182.374 205.149 182.381 205.302 182.534 205.402L186.903 207.925C186.996 207.971 187.099 207.994 187.202 207.993C187.306 207.992 187.408 207.966 187.5 207.918V207.918ZM182.414 218.058L190.834 213.197C190.993 213.104 190.986 212.951 190.834 212.852L180.21 206.73C180.117 206.683 180.015 206.659 179.911 206.659C179.807 206.659 179.705 206.683 179.612 206.73L175.256 209.246C175.097 209.339 175.103 209.492 175.256 209.592L180.867 212.832C181.04 212.932 181.046 213.091 180.867 213.184L177.388 215.176C177.222 215.269 177.235 215.422 177.388 215.521L181.75 218.038C181.849 218.099 181.963 218.133 182.079 218.137C182.196 218.14 182.311 218.113 182.414 218.058V218.058ZM154.207 214.18L150.436 216.364C150.277 216.457 150.283 216.61 150.436 216.71L154.798 219.233C154.892 219.281 154.995 219.306 155.1 219.306C155.206 219.306 155.309 219.281 155.403 219.233L159.181 217.055C159.34 216.962 159.327 216.809 159.181 216.71L154.818 214.186C154.724 214.137 154.62 214.11 154.514 214.109C154.407 214.108 154.302 214.132 154.207 214.18V214.18ZM148.69 217.367L144.918 219.545C144.759 219.638 144.765 219.797 144.918 219.897L149.281 222.413C149.374 222.461 149.478 222.486 149.583 222.486C149.688 222.486 149.791 222.461 149.885 222.413L153.663 220.236C153.822 220.143 153.809 219.983 153.663 219.89L149.3 217.367C149.206 217.318 149.101 217.293 148.995 217.293C148.889 217.293 148.784 217.318 148.69 217.367V217.367ZM121.12 253.084C121.214 253.131 121.317 253.156 121.422 253.156C121.527 253.156 121.631 253.131 121.725 253.084L125.503 250.906C125.662 250.813 125.649 250.66 125.503 250.56L121.14 248.037C121.047 247.989 120.943 247.964 120.838 247.964C120.733 247.964 120.63 247.989 120.536 248.037L116.764 250.215C116.605 250.308 116.612 250.467 116.764 250.567L121.12 253.084ZM104.553 242.851L100.782 245.016C100.623 245.109 100.629 245.262 100.782 245.361L105.144 247.884C105.238 247.932 105.342 247.957 105.447 247.957C105.552 247.957 105.655 247.932 105.749 247.884L109.52 245.707C109.686 245.614 109.673 245.454 109.52 245.355L105.158 242.838C105.063 242.792 104.959 242.77 104.854 242.772C104.749 242.774 104.646 242.801 104.553 242.851V242.851ZM113.438 250.328C113.53 250.375 113.633 250.399 113.737 250.399C113.84 250.399 113.943 250.375 114.035 250.328L117.814 248.15C117.973 248.057 117.96 247.904 117.814 247.805L113.451 245.282C113.358 245.234 113.254 245.209 113.149 245.209C113.044 245.209 112.94 245.234 112.847 245.282L109.075 247.466C108.916 247.559 108.923 247.712 109.075 247.811L113.438 250.328ZM130.861 255.029L134.639 252.851C134.799 252.758 134.792 252.599 134.639 252.499L130.27 249.983C130.178 249.936 130.075 249.912 129.971 249.912C129.868 249.912 129.765 249.936 129.673 249.983L125.894 252.161C125.735 252.254 125.742 252.413 125.894 252.513L130.264 255.029C130.357 255.075 130.459 255.098 130.563 255.097C130.667 255.096 130.769 255.07 130.861 255.022V255.029ZM124.746 258.203C124.838 258.25 124.941 258.274 125.045 258.274C125.148 258.274 125.251 258.25 125.343 258.203L129.121 256.018C129.281 255.926 129.274 255.773 129.121 255.673L124.752 253.157C124.66 253.11 124.557 253.086 124.454 253.086C124.35 253.086 124.247 253.11 124.155 253.157L120.377 255.335C120.217 255.428 120.224 255.58 120.377 255.68L124.746 258.203ZM110.071 239.671L106.3 241.849C106.134 241.942 106.147 242.101 106.3 242.201L110.662 244.717C110.756 244.765 110.859 244.79 110.964 244.79C111.069 244.79 111.173 244.765 111.267 244.717L115.038 242.539C115.204 242.446 115.191 242.294 115.038 242.194L110.676 239.671C110.583 239.622 110.479 239.596 110.374 239.595C110.269 239.594 110.165 239.617 110.071 239.664V239.671ZM137.661 223.735L133.882 225.913C133.723 226.006 133.73 226.158 133.882 226.258L138.251 228.781C138.344 228.828 138.447 228.852 138.55 228.852C138.654 228.852 138.756 228.828 138.849 228.781L142.627 226.597C142.787 226.504 142.78 226.351 142.627 226.251L138.258 223.728C138.162 223.688 138.058 223.67 137.955 223.677C137.851 223.684 137.75 223.715 137.661 223.768V223.735ZM115.589 236.47L111.811 238.655C111.652 238.748 111.665 238.901 111.811 239L116.173 241.523C116.267 241.571 116.371 241.596 116.476 241.596C116.581 241.596 116.684 241.571 116.778 241.523L120.549 239.345C120.709 239.252 120.702 239.1 120.549 239L116.187 236.477C116.094 236.43 115.992 236.406 115.888 236.406C115.784 236.406 115.682 236.43 115.589 236.477V236.47ZM143.172 220.534L139.4 222.712C139.241 222.805 139.247 222.958 139.4 223.058L143.769 225.581C143.862 225.627 143.964 225.652 144.068 225.652C144.172 225.652 144.274 225.627 144.367 225.581L148.145 223.403C148.304 223.31 148.291 223.15 148.145 223.051L143.776 220.534C143.681 220.49 143.576 220.468 143.471 220.472C143.366 220.475 143.264 220.503 143.172 220.554V220.534ZM132.136 226.922L128.365 229.08C128.205 229.173 128.212 229.332 128.365 229.432L132.734 231.948C132.827 231.996 132.931 232.021 133.036 232.021C133.141 232.021 133.244 231.996 133.338 231.948L137.109 229.771C137.269 229.678 137.262 229.525 137.109 229.425L132.74 226.902C132.645 226.857 132.541 226.836 132.436 226.839C132.331 226.843 132.228 226.871 132.136 226.922V226.922ZM126.618 230.109L122.84 232.287C122.681 232.38 122.694 232.539 122.84 232.639L127.203 235.156C127.296 235.203 127.4 235.228 127.505 235.228C127.61 235.228 127.713 235.203 127.807 235.156L131.578 232.978C131.738 232.885 131.731 232.725 131.578 232.626L127.216 230.109C127.124 230.064 127.023 230.04 126.92 230.04C126.818 230.04 126.717 230.064 126.625 230.109H126.618ZM121.1 233.296L117.322 235.474C117.163 235.567 117.176 235.72 117.322 235.82L121.685 238.343C121.778 238.391 121.882 238.416 121.987 238.416C122.092 238.416 122.195 238.391 122.289 238.343L126.06 236.158C126.22 236.072 126.213 235.913 126.06 235.813L121.698 233.296C121.606 233.251 121.505 233.227 121.402 233.227C121.3 233.227 121.199 233.251 121.107 233.296H121.1ZM149.3 237.174L153.079 234.99C153.238 234.903 153.231 234.744 153.079 234.644L148.709 232.128C148.617 232.081 148.514 232.057 148.411 232.057C148.307 232.057 148.205 232.081 148.112 232.128L144.334 234.306C144.174 234.399 144.181 234.551 144.334 234.651L148.703 237.174C148.796 237.222 148.9 237.247 149.005 237.247C149.11 237.247 149.214 237.222 149.307 237.174H149.3ZM197.772 189.034L193.994 191.232C193.828 191.325 193.842 191.484 193.994 191.584L198.357 194.1C198.45 194.148 198.554 194.173 198.659 194.173C198.764 194.173 198.867 194.148 198.961 194.1L202.733 191.923C202.892 191.83 202.885 191.677 202.733 191.577L198.37 189.054C198.278 189.003 198.175 188.975 198.07 188.971C197.965 188.968 197.861 188.989 197.766 189.034H197.772ZM191.093 192.892L187.321 195.07C187.155 195.163 187.168 195.316 187.321 195.415L191.684 197.938C191.777 197.986 191.881 198.011 191.986 198.011C192.091 198.011 192.194 197.986 192.288 197.938L196.059 195.76C196.225 195.668 196.212 195.508 196.059 195.409L191.697 192.892C191.602 192.843 191.498 192.818 191.391 192.818C191.285 192.818 191.18 192.843 191.086 192.892H191.093ZM203.29 185.847L199.512 188.032C199.353 188.124 199.366 188.277 199.512 188.377L203.875 190.9C203.968 190.948 204.072 190.973 204.177 190.973C204.282 190.973 204.385 190.948 204.479 190.9L208.25 188.722C208.41 188.629 208.403 188.476 208.25 188.377L203.888 185.854C203.795 185.805 203.692 185.779 203.587 185.778C203.482 185.776 203.378 185.8 203.284 185.847H203.29ZM174.738 215.295L178.516 213.117C178.676 213.024 178.663 212.872 178.516 212.772L174.154 210.249C174.06 210.201 173.957 210.176 173.852 210.176C173.747 210.176 173.643 210.201 173.55 210.249L169.778 212.434C169.619 212.526 169.625 212.679 169.778 212.779L174.141 215.302C174.232 215.346 174.332 215.368 174.434 215.366C174.535 215.365 174.635 215.341 174.725 215.295H174.738ZM209.412 182.68C209.32 182.633 209.217 182.609 209.114 182.609C209.01 182.609 208.907 182.633 208.815 182.68L205.037 184.858C204.877 184.951 204.891 185.103 205.037 185.203L209.399 187.726C209.493 187.774 209.596 187.799 209.701 187.799C209.806 187.799 209.91 187.774 210.003 187.726L213.775 185.542C213.934 185.449 213.928 185.296 213.775 185.196L209.412 182.68ZM154.838 233.987L158.616 231.809C158.776 231.716 158.769 231.557 158.616 231.457L154.247 228.941C154.155 228.894 154.052 228.87 153.948 228.87C153.845 228.87 153.742 228.894 153.65 228.941L149.871 231.118C149.712 231.211 149.719 231.371 149.871 231.464L154.241 233.987C154.332 234.032 154.431 234.055 154.533 234.055C154.634 234.055 154.734 234.032 154.825 233.987H154.838ZM222.5 194.924L226.271 192.746C226.431 192.653 226.424 192.494 226.271 192.394L221.876 189.904C221.782 189.856 221.679 189.831 221.574 189.831C221.469 189.831 221.365 189.856 221.271 189.904L217.493 192.082C217.334 192.175 217.347 192.334 217.493 192.434L221.856 194.95C221.955 194.999 222.064 195.022 222.175 195.017C222.285 195.012 222.392 194.98 222.487 194.924H222.5ZM210.747 194.512L214.519 192.328C214.678 192.235 214.671 192.082 214.519 191.982L210.156 189.459C210.063 189.411 209.959 189.386 209.854 189.386C209.749 189.386 209.645 189.411 209.552 189.459L205.78 191.637C205.614 191.73 205.628 191.883 205.78 191.982L210.143 194.506C210.234 194.552 210.335 194.577 210.437 194.578C210.54 194.579 210.641 194.557 210.734 194.512H210.747ZM215.654 186.279C215.56 186.231 215.457 186.206 215.352 186.206C215.247 186.206 215.143 186.231 215.05 186.279L211.272 188.456C211.112 188.549 211.125 188.709 211.272 188.802L215.634 191.325C215.728 191.373 215.831 191.398 215.936 191.398C216.041 191.398 216.145 191.373 216.238 191.325L220.01 189.147C220.169 189.054 220.163 188.895 220.01 188.795L215.654 186.279ZM216.816 185.615L227.44 191.73C227.534 191.778 227.637 191.803 227.742 191.803C227.847 191.803 227.951 191.778 228.044 191.73L231.816 189.552C231.975 189.459 231.968 189.306 231.816 189.207L221.192 183.085C221.099 183.038 220.997 183.014 220.893 183.014C220.789 183.014 220.687 183.038 220.594 183.085L216.776 185.256C216.617 185.349 216.63 185.508 216.803 185.608L216.816 185.615ZM204.014 192.64L200.243 194.824C200.077 194.911 200.09 195.07 200.243 195.17L204.605 197.686C204.699 197.734 204.802 197.759 204.907 197.759C205.012 197.759 205.116 197.734 205.209 197.686L208.981 195.508C209.147 195.415 209.134 195.262 208.981 195.163L204.618 192.64C204.524 192.589 204.418 192.561 204.31 192.56C204.203 192.559 204.097 192.584 204.001 192.633L204.014 192.64ZM162.481 216.61L158.696 218.788C158.537 218.881 158.543 219.034 158.696 219.133L163.065 221.656C163.158 221.703 163.26 221.728 163.364 221.728C163.468 221.728 163.57 221.703 163.663 221.656L167.441 219.479C167.6 219.386 167.587 219.226 167.441 219.127L163.072 216.61C162.98 216.564 162.879 216.541 162.776 216.541C162.674 216.541 162.573 216.564 162.481 216.61V216.61ZM216.364 198.098C216.458 198.146 216.562 198.17 216.667 198.17C216.772 198.17 216.875 198.146 216.969 198.098L220.74 195.92C220.906 195.827 220.893 195.668 220.74 195.568L216.378 193.051C216.284 193.004 216.181 192.979 216.076 192.979C215.971 192.979 215.867 193.004 215.773 193.051L211.982 195.216C211.816 195.309 211.829 195.462 211.982 195.561L216.364 198.098ZM167.992 213.423L164.221 215.601C164.061 215.694 164.068 215.853 164.221 215.953L168.59 218.469C168.682 218.516 168.785 218.54 168.888 218.54C168.992 218.54 169.095 218.516 169.187 218.469L172.965 216.291C173.125 216.198 173.111 216.039 172.965 215.946L168.603 213.423C168.509 213.374 168.404 213.348 168.297 213.348C168.191 213.348 168.086 213.374 167.992 213.423V213.423ZM126.638 249.903C126.732 249.951 126.835 249.976 126.94 249.976C127.045 249.976 127.149 249.951 127.242 249.903L131.014 247.718C131.18 247.626 131.167 247.473 131.014 247.373L126.651 244.85C126.558 244.802 126.454 244.777 126.349 244.777C126.244 244.777 126.141 244.802 126.047 244.85L122.256 247.008C122.09 247.101 122.103 247.254 122.256 247.353L126.638 249.903ZM118.338 242.094L114.567 244.272C114.407 244.365 114.414 244.518 114.567 244.618L118.929 247.141C119.023 247.189 119.126 247.214 119.231 247.214C119.336 247.214 119.44 247.189 119.533 247.141L123.311 244.956C123.471 244.863 123.458 244.711 123.311 244.611L118.949 242.088C118.854 242.04 118.749 242.015 118.643 242.017C118.536 242.018 118.432 242.044 118.338 242.094ZM132.76 246.742L136.532 244.564C136.691 244.472 136.684 244.312 136.532 244.213L132.136 241.696C132.043 241.648 131.939 241.623 131.834 241.623C131.729 241.623 131.625 241.648 131.532 241.696L127.754 243.874C127.594 243.967 127.608 244.12 127.754 244.219L132.116 246.742C132.216 246.795 132.327 246.821 132.44 246.819C132.553 246.817 132.663 246.786 132.76 246.729V246.742ZM138.278 243.555L142.05 241.377C142.209 241.284 142.202 241.125 142.05 241.032L137.687 238.509C137.594 238.461 137.49 238.436 137.385 238.436C137.28 238.436 137.176 238.461 137.083 238.509L133.305 240.687C133.145 240.78 133.159 240.939 133.305 241.039L137.667 243.555C137.763 243.602 137.868 243.625 137.974 243.623C138.081 243.621 138.185 243.593 138.278 243.542V243.555ZM143.796 240.368L147.567 238.19C147.727 238.097 147.72 237.944 147.567 237.845L143.198 235.322C143.106 235.275 143.003 235.251 142.899 235.251C142.796 235.251 142.693 235.275 142.601 235.322L138.776 237.48C138.617 237.573 138.63 237.725 138.776 237.825L143.139 240.341C143.236 240.403 143.348 240.437 143.464 240.442C143.579 240.447 143.693 240.421 143.796 240.368V240.368ZM123.876 238.92L120.104 241.098C119.945 241.191 119.952 241.344 120.104 241.444L124.467 243.967C124.56 244.015 124.664 244.04 124.769 244.04C124.874 244.04 124.978 244.015 125.071 243.967L128.849 241.789C129.009 241.696 128.995 241.537 128.849 241.437L124.487 238.92C124.391 238.866 124.283 238.836 124.173 238.834C124.063 238.832 123.954 238.857 123.856 238.907L123.876 238.92ZM129.394 235.733L125.622 237.911C125.456 238.004 125.469 238.164 125.622 238.263L129.985 240.78C130.078 240.827 130.182 240.852 130.287 240.852C130.392 240.852 130.495 240.827 130.589 240.78L134.36 238.602C134.526 238.509 134.513 238.356 134.36 238.256L129.998 235.733C129.903 235.68 129.796 235.651 129.688 235.649C129.579 235.646 129.471 235.671 129.374 235.72L129.394 235.733ZM151.465 222.991L147.687 225.169C147.528 225.262 147.534 225.421 147.687 225.521L152.056 228.038C152.149 228.084 152.251 228.109 152.355 228.109C152.459 228.109 152.561 228.084 152.654 228.038L156.432 225.86C156.591 225.767 156.585 225.614 156.432 225.514L152.063 222.991C151.969 222.939 151.863 222.911 151.756 222.908C151.648 222.906 151.541 222.93 151.445 222.978L151.465 222.991ZM145.947 226.178L142.169 228.356C142.01 228.449 142.023 228.609 142.169 228.708L146.532 231.225C146.625 231.273 146.729 231.297 146.834 231.297C146.939 231.297 147.042 231.273 147.136 231.225L150.907 229.047C151.067 228.954 151.06 228.794 150.907 228.695L146.538 226.178C146.445 226.127 146.341 226.1 146.234 226.097C146.128 226.095 146.023 226.118 145.927 226.165L145.947 226.178ZM156.963 219.784L153.185 221.962C153.025 222.055 153.032 222.208 153.185 222.307L157.554 224.83C157.647 224.877 157.749 224.901 157.853 224.901C157.957 224.901 158.059 224.877 158.152 224.83L161.93 222.646C162.089 222.553 162.082 222.4 161.93 222.301L157.561 219.777C157.467 219.732 157.365 219.709 157.261 219.71C157.157 219.711 157.055 219.736 156.963 219.784V219.784ZM134.892 232.533L131.12 234.717C130.954 234.81 130.967 234.963 131.12 235.063L135.483 237.586C135.576 237.634 135.68 237.659 135.785 237.659C135.89 237.659 135.993 237.634 136.087 237.586L139.858 235.408C140.018 235.315 140.011 235.162 139.858 235.063L135.496 232.539C135.403 232.491 135.3 232.465 135.195 232.463C135.09 232.462 134.986 232.486 134.892 232.533V232.533ZM140.409 229.352L136.631 231.53C136.472 231.623 136.485 231.776 136.631 231.875L140.994 234.399C141.087 234.446 141.191 234.471 141.296 234.471C141.401 234.471 141.505 234.446 141.598 234.399L145.37 232.214C145.529 232.128 145.522 231.968 145.37 231.869L141.007 229.352C140.914 229.306 140.812 229.281 140.708 229.281C140.605 229.281 140.502 229.306 140.409 229.352V229.352ZM136.379 251.835L140.157 249.657C140.317 249.564 140.303 249.412 140.157 249.312L135.788 246.789C135.695 246.742 135.593 246.718 135.489 246.718C135.385 246.718 135.283 246.742 135.19 246.789L131.412 248.967C131.253 249.06 131.26 249.219 131.412 249.319L135.781 251.835C135.874 251.882 135.976 251.906 136.08 251.906C136.184 251.906 136.286 251.882 136.379 251.835V251.835ZM104.002 248.568L99.6399 246.045C99.5464 245.997 99.4428 245.972 99.3378 245.972C99.2327 245.972 99.1292 245.997 99.0356 246.045L95.2641 248.223C95.1048 248.316 95.1114 248.469 95.2641 248.568L99.6266 251.092C99.7201 251.139 99.8237 251.164 99.9287 251.164C100.034 251.164 100.137 251.139 100.231 251.092L104.009 248.907C104.188 248.821 104.175 248.668 104.002 248.568V248.568ZM112.276 250.992L107.907 248.475C107.814 248.429 107.712 248.404 107.608 248.404C107.504 248.404 107.402 248.429 107.309 248.475L101.499 251.829C101.34 251.922 101.346 252.074 101.499 252.174L105.868 254.697C105.961 254.744 106.063 254.768 106.167 254.768C106.271 254.768 106.373 254.744 106.466 254.697L112.276 251.344C112.455 251.251 112.448 251.092 112.276 250.992ZM97.3093 243.688L92.9601 241.178C92.8674 241.131 92.765 241.107 92.6613 241.107C92.5575 241.107 92.4551 241.131 92.3625 241.178L87.7145 243.834C87.5551 243.927 87.5617 244.08 87.7145 244.179L92.0836 246.703C92.1762 246.749 92.2786 246.774 92.3824 246.774C92.4862 246.774 92.5885 246.749 92.6812 246.703L97.3292 244.047C97.4885 243.954 97.4819 243.794 97.3093 243.688ZM100.868 241.63C100.962 241.677 101.065 241.702 101.17 241.702C101.275 241.702 101.379 241.677 101.473 241.63L105.244 239.452C105.41 239.359 105.397 239.206 105.244 239.106L100.882 236.583C100.788 236.535 100.684 236.51 100.579 236.51C100.474 236.51 100.371 236.535 100.277 236.583L96.5058 238.768C96.3398 238.861 96.3531 239.013 96.5058 239.113L100.868 241.63ZM119.958 253.748L115.596 251.231C115.502 251.183 115.399 251.158 115.294 251.158C115.189 251.158 115.085 251.183 114.992 251.231L107.734 255.421C107.575 255.514 107.581 255.673 107.734 255.773L112.103 258.289C112.196 258.336 112.298 258.36 112.402 258.36C112.506 258.36 112.608 258.336 112.701 258.289L119.965 254.1C120.144 254.013 120.131 253.854 119.958 253.754V253.748ZM123.584 258.86L119.215 256.337C119.122 256.29 119.02 256.266 118.916 256.266C118.812 256.266 118.71 256.29 118.617 256.337L113.969 258.993C113.81 259.086 113.816 259.246 113.969 259.345L118.338 261.862C118.431 261.908 118.533 261.933 118.637 261.933C118.741 261.933 118.843 261.908 118.936 261.862L123.584 259.206C123.763 259.119 123.756 258.96 123.584 258.867V258.86ZM141.89 217.951C141.984 217.999 142.087 218.024 142.192 218.024C142.297 218.024 142.401 217.999 142.494 217.951L146.266 215.767C146.425 215.674 146.419 215.521 146.266 215.422L141.903 212.898C141.81 212.851 141.706 212.826 141.601 212.826C141.496 212.826 141.393 212.851 141.299 212.898L137.521 215.076C137.362 215.169 137.375 215.322 137.521 215.422L141.89 217.951ZM130.855 224.319C130.948 224.367 131.052 224.392 131.157 224.392C131.262 224.392 131.365 224.367 131.459 224.319L135.23 222.141C135.396 222.048 135.383 221.889 135.23 221.789L130.868 219.273C130.774 219.225 130.671 219.2 130.566 219.2C130.461 219.2 130.357 219.225 130.264 219.273L126.492 221.451C126.326 221.544 126.339 221.703 126.492 221.803L130.855 224.319ZM106.386 238.449C106.48 238.497 106.583 238.522 106.688 238.522C106.793 238.522 106.897 238.497 106.99 238.449L110.762 236.264C110.921 236.172 110.915 236.019 110.762 235.919L106.399 233.396C106.306 233.348 106.202 233.323 106.097 233.323C105.992 233.323 105.889 233.348 105.795 233.396L102.017 235.574C101.858 235.667 101.871 235.82 102.017 235.919L106.386 238.449ZM136.372 221.112C136.466 221.16 136.569 221.185 136.674 221.185C136.78 221.185 136.883 221.16 136.977 221.112L140.748 218.934C140.907 218.841 140.901 218.688 140.748 218.589L136.386 216.066C136.292 216.018 136.189 215.993 136.084 215.993C135.978 215.993 135.875 216.018 135.781 216.066L132.01 218.25C131.844 218.336 131.857 218.496 132.01 218.595L136.372 221.112ZM125.337 227.486C125.43 227.534 125.534 227.559 125.639 227.559C125.744 227.559 125.847 227.534 125.941 227.486L129.719 225.308C129.878 225.216 129.865 225.056 129.719 224.957L125.357 222.44C125.263 222.392 125.16 222.367 125.054 222.367C124.949 222.367 124.846 222.392 124.752 222.44L120.981 224.618C120.821 224.711 120.828 224.864 120.981 224.963L125.337 227.486ZM126.618 259.252C126.525 259.204 126.421 259.179 126.316 259.179C126.211 259.179 126.108 259.204 126.014 259.252L120.184 262.619C120.025 262.712 120.038 262.864 120.184 262.964L124.553 265.48C124.647 265.528 124.75 265.553 124.855 265.553C124.96 265.553 125.064 265.528 125.157 265.48L130.961 262.16C131.12 262.068 131.113 261.915 130.961 261.815L126.618 259.252ZM117.422 232.028C117.515 232.076 117.619 232.101 117.724 232.101C117.829 232.101 117.933 232.076 118.026 232.028L121.798 229.85C121.957 229.757 121.95 229.605 121.798 229.505L117.435 226.982C117.342 226.934 117.238 226.909 117.133 226.909C117.028 226.909 116.924 226.934 116.831 226.982L113.053 229.16C112.893 229.253 112.907 229.412 113.053 229.512L117.422 232.028ZM111.904 235.215C111.998 235.263 112.101 235.288 112.206 235.288C112.311 235.288 112.415 235.263 112.508 235.215L116.28 233.037C116.439 232.944 116.432 232.785 116.28 232.686L111.917 230.169C111.824 230.121 111.72 230.096 111.615 230.096C111.51 230.096 111.407 230.121 111.313 230.169L107.515 232.4C107.356 232.493 107.369 232.652 107.515 232.745L111.904 235.215ZM228.828 200.262C228.734 200.215 228.631 200.19 228.526 200.19C228.421 200.19 228.317 200.215 228.223 200.262L218.927 205.628C218.768 205.72 218.775 205.88 218.927 205.979L223.297 208.496C223.389 208.543 223.492 208.567 223.595 208.567C223.699 208.567 223.802 208.543 223.894 208.496L233.19 203.131C233.35 203.038 233.336 202.885 233.19 202.786L228.828 200.262ZM216.63 207.301C216.537 207.254 216.435 207.23 216.331 207.23C216.227 207.23 216.125 207.254 216.032 207.301L212.254 209.479C212.095 209.572 212.102 209.724 212.254 209.824L216.623 212.347C216.716 212.394 216.818 212.418 216.922 212.418C217.026 212.418 217.128 212.394 217.221 212.347L220.999 210.163C221.159 210.07 221.152 209.917 220.999 209.817L216.63 207.301ZM141.897 248.655L145.675 246.47C145.834 246.377 145.821 246.224 145.675 246.125L141.313 243.602C141.219 243.554 141.115 243.529 141.01 243.529C140.905 243.529 140.802 243.554 140.708 243.602L136.937 245.78C136.777 245.873 136.784 246.025 136.937 246.125L141.306 248.648C141.397 248.695 141.498 248.72 141.601 248.721C141.703 248.722 141.805 248.699 141.897 248.655ZM205.601 213.675C205.507 213.627 205.404 213.602 205.299 213.602C205.194 213.602 205.09 213.627 204.997 213.675L201.192 215.84C201.033 215.933 201.046 216.092 201.192 216.192L205.555 218.708C205.648 218.756 205.752 218.781 205.857 218.781C205.962 218.781 206.065 218.756 206.159 218.708L209.93 216.53C210.09 216.437 210.083 216.278 209.93 216.178L205.601 213.675ZM234.346 197.075C234.252 197.027 234.149 197.002 234.043 197.002C233.938 197.002 233.835 197.027 233.741 197.075L229.97 199.26C229.81 199.353 229.817 199.505 229.97 199.605L234.332 202.128C234.426 202.176 234.529 202.201 234.634 202.201C234.739 202.201 234.843 202.176 234.937 202.128L238.715 199.95C238.874 199.857 238.861 199.705 238.715 199.605L234.346 197.075ZM244.226 196.411L233.602 190.289C233.508 190.241 233.405 190.216 233.3 190.216C233.195 190.216 233.091 190.241 232.998 190.289L229.226 192.467C229.06 192.56 229.073 192.713 229.226 192.812L239.85 198.934C239.944 198.982 240.047 199.007 240.152 199.007C240.257 199.007 240.361 198.982 240.454 198.934L244.226 196.75C244.412 196.67 244.399 196.544 244.226 196.411ZM184.984 225.581C184.89 225.533 184.787 225.508 184.682 225.508C184.577 225.508 184.473 225.533 184.38 225.581L179.732 228.237C179.572 228.33 179.579 228.482 179.732 228.582L184.101 231.105C184.193 231.152 184.296 231.176 184.399 231.176C184.503 231.176 184.606 231.152 184.698 231.105L189.346 228.449C189.506 228.363 189.499 228.204 189.346 228.104L184.984 225.581ZM198.928 217.533C198.834 217.485 198.731 217.46 198.626 217.46C198.521 217.46 198.417 217.485 198.324 217.533L192.514 220.886C192.354 220.979 192.367 221.132 192.514 221.232L196.876 223.755C196.97 223.803 197.073 223.827 197.178 223.827C197.283 223.827 197.387 223.803 197.48 223.755L203.284 220.435C203.443 220.342 203.436 220.182 203.284 220.083L198.928 217.533ZM172.208 232.951C172.116 232.904 172.013 232.88 171.91 232.88C171.806 232.88 171.704 232.904 171.611 232.951L140.536 250.879C140.376 250.972 140.39 251.131 140.536 251.231L144.898 253.748C144.992 253.795 145.095 253.82 145.2 253.82C145.305 253.82 145.409 253.795 145.502 253.748L176.571 235.82C176.73 235.727 176.724 235.574 176.571 235.474L172.208 232.951ZM139.4 251.902C139.307 251.854 139.203 251.829 139.098 251.829C138.993 251.829 138.89 251.854 138.796 251.902L134.148 254.558C133.989 254.651 134.002 254.803 134.148 254.903L138.51 257.426C138.604 257.474 138.708 257.499 138.813 257.499C138.918 257.499 139.021 257.474 139.115 257.426L143.763 254.77C143.922 254.677 143.915 254.524 143.763 254.425L139.4 251.902ZM178.576 229.266C178.484 229.219 178.381 229.195 178.277 229.195C178.174 229.195 178.071 229.219 177.979 229.266L173.331 231.922C173.171 232.015 173.178 232.174 173.331 232.267L177.7 234.79C177.792 234.837 177.895 234.861 177.999 234.861C178.102 234.861 178.205 234.837 178.297 234.79L182.945 232.134C183.105 232.041 183.098 231.889 182.945 231.789L178.576 229.266ZM132.993 255.587C132.899 255.539 132.796 255.514 132.69 255.514C132.585 255.514 132.482 255.539 132.388 255.587L127.74 258.243C127.581 258.336 127.594 258.495 127.74 258.588L132.109 261.111C132.203 261.159 132.307 261.184 132.412 261.184C132.517 261.184 132.62 261.159 132.714 261.111L137.362 258.455C137.521 258.362 137.514 258.21 137.362 258.11L132.993 255.587ZM191.358 221.889C191.265 221.841 191.161 221.816 191.056 221.816C190.951 221.816 190.848 221.841 190.754 221.889L186.106 224.545C185.947 224.638 185.96 224.797 186.106 224.897L190.475 227.413C190.569 227.461 190.672 227.486 190.777 227.486C190.882 227.486 190.986 227.461 191.079 227.413L195.727 224.757C195.887 224.664 195.88 224.512 195.727 224.412L191.358 221.889ZM211.112 210.488C211.02 210.441 210.917 210.417 210.813 210.417C210.71 210.417 210.607 210.441 210.515 210.488L206.736 212.673C206.577 212.759 206.59 212.918 206.736 213.018L211.106 215.534C211.198 215.581 211.301 215.605 211.404 215.605C211.508 215.605 211.61 215.581 211.703 215.534L215.481 213.356C215.641 213.264 215.634 213.111 215.481 213.011L211.112 210.488ZM223.204 201.71L226.975 199.532C227.141 199.439 227.128 199.28 226.975 199.18L222.613 196.664C222.519 196.616 222.416 196.591 222.311 196.591C222.206 196.591 222.102 196.616 222.008 196.664L218.237 198.841C218.078 198.934 218.084 199.094 218.237 199.193L222.599 201.71C222.693 201.758 222.797 201.783 222.902 201.783C223.007 201.783 223.11 201.758 223.204 201.71V201.71ZM198.536 201.551L202.314 199.373C202.474 199.28 202.46 199.12 202.314 199.021L197.952 196.504C197.858 196.456 197.755 196.431 197.65 196.431C197.545 196.431 197.441 196.456 197.347 196.504L193.576 198.682C193.417 198.775 193.423 198.934 193.576 199.034L197.938 201.551C198.031 201.597 198.133 201.622 198.237 201.622C198.341 201.622 198.443 201.597 198.536 201.551V201.551ZM186.033 223.17L197.069 216.796C197.228 216.703 197.221 216.55 197.069 216.451L192.706 213.928C192.613 213.88 192.509 213.855 192.404 213.855C192.299 213.855 192.195 213.88 192.102 213.928L181.066 220.295C180.907 220.388 180.913 220.541 181.066 220.641L185.435 223.164C185.527 223.211 185.63 223.237 185.733 223.238C185.837 223.239 185.94 223.216 186.033 223.17V223.17ZM217.082 204.884C217.175 204.932 217.279 204.957 217.384 204.957C217.489 204.957 217.592 204.932 217.686 204.884L221.464 202.699C221.623 202.613 221.61 202.454 221.464 202.354L217.075 199.864C216.981 199.816 216.878 199.791 216.773 199.791C216.668 199.791 216.564 199.816 216.471 199.864L212.699 202.042C212.54 202.135 212.546 202.288 212.699 202.387L217.082 204.884ZM211.451 201.298L215.229 199.114C215.388 199.021 215.375 198.868 215.229 198.768L210.867 196.245C210.773 196.197 210.669 196.172 210.564 196.172C210.459 196.172 210.356 196.197 210.262 196.245L206.491 198.43C206.331 198.523 206.338 198.675 206.491 198.775L210.853 201.298C210.946 201.345 211.048 201.369 211.152 201.369C211.256 201.369 211.358 201.345 211.451 201.298V201.298ZM180.515 226.358L184.293 224.173C184.453 224.08 184.446 223.927 184.293 223.828L179.924 221.305C179.831 221.258 179.729 221.234 179.625 221.234C179.522 221.234 179.419 221.258 179.327 221.305L175.548 223.489C175.389 223.582 175.396 223.735 175.548 223.834L179.917 226.358C180.01 226.404 180.113 226.429 180.216 226.429C180.32 226.429 180.422 226.404 180.515 226.358V226.358ZM204.891 211.922C204.983 211.969 205.086 211.993 205.189 211.993C205.293 211.993 205.395 211.969 205.488 211.922L209.266 209.744C209.426 209.651 209.419 209.492 209.266 209.399L204.897 206.876C204.804 206.829 204.702 206.805 204.598 206.805C204.495 206.805 204.392 206.829 204.3 206.876L200.528 209.054C200.369 209.147 200.375 209.306 200.528 209.406L204.891 211.922ZM152.933 242.28L156.704 240.102C156.863 240.009 156.85 239.85 156.704 239.75L152.342 237.234C152.248 237.186 152.144 237.161 152.039 237.161C151.934 237.161 151.831 237.186 151.737 237.234L147.966 239.412C147.806 239.505 147.813 239.664 147.966 239.764L152.328 242.28C152.422 242.328 152.525 242.353 152.63 242.353C152.735 242.353 152.839 242.328 152.933 242.28V242.28ZM158.45 239.093L162.222 236.915C162.388 236.822 162.375 236.67 162.222 236.57L157.859 234.047C157.766 233.999 157.662 233.974 157.557 233.974C157.452 233.974 157.349 233.999 157.255 234.047L153.484 236.231C153.318 236.324 153.331 236.477 153.484 236.577L157.846 239.093C157.94 239.141 158.043 239.166 158.148 239.166C158.253 239.166 158.357 239.141 158.45 239.093ZM147.408 245.468L151.186 243.29C151.346 243.197 151.332 243.037 151.186 242.938L146.824 240.421C146.73 240.373 146.627 240.348 146.522 240.348C146.417 240.348 146.313 240.373 146.219 240.421L142.448 242.599C142.289 242.692 142.295 242.845 142.448 242.944L146.81 245.468C146.903 245.514 147.005 245.539 147.109 245.539C147.213 245.539 147.315 245.514 147.408 245.468V245.468ZM169.479 232.725L173.251 230.547C173.41 230.454 173.404 230.295 173.251 230.196L168.888 227.679C168.795 227.631 168.691 227.606 168.586 227.606C168.481 227.606 168.378 227.631 168.284 227.679L164.506 229.857C164.347 229.95 164.36 230.109 164.506 230.202L168.869 232.725C168.964 232.775 169.07 232.802 169.177 232.802C169.285 232.802 169.391 232.775 169.486 232.725H169.479ZM163.962 235.913L167.733 233.728C167.892 233.635 167.886 233.482 167.733 233.383L163.344 230.866C163.251 230.818 163.147 230.793 163.042 230.793C162.937 230.793 162.833 230.818 162.74 230.866L158.975 233.064C158.816 233.157 158.829 233.31 158.975 233.409L163.337 235.932C163.436 235.982 163.545 236.006 163.655 236.002C163.765 235.999 163.873 235.968 163.968 235.913H163.962ZM174.997 229.538L178.769 227.36C178.928 227.267 178.922 227.115 178.769 227.015L174.4 224.492C174.307 224.445 174.205 224.421 174.101 224.421C173.997 224.421 173.895 224.445 173.802 224.492L169.984 226.656C169.825 226.749 169.838 226.909 169.984 227.008L174.347 229.525C174.446 229.584 174.558 229.616 174.673 229.619C174.789 229.621 174.903 229.593 175.004 229.538H174.997ZM200.229 182.394C200.323 182.442 200.426 182.467 200.531 182.467C200.636 182.467 200.74 182.442 200.833 182.394L204.605 180.216C204.764 180.123 204.758 179.971 204.605 179.871L203.443 179.207C203.349 179.159 203.246 179.134 203.141 179.134C203.036 179.134 202.932 179.159 202.839 179.207L199.067 181.385C198.908 181.478 198.915 181.631 199.067 181.73L200.229 182.394ZM173.085 199.91C173.178 199.957 173.28 199.982 173.384 199.982C173.488 199.982 173.59 199.957 173.683 199.91L177.461 197.733C177.62 197.64 177.613 197.487 177.461 197.387L173.092 194.864C172.999 194.817 172.897 194.793 172.793 194.793C172.689 194.793 172.587 194.817 172.494 194.864L168.716 197.042C168.556 197.135 168.563 197.294 168.716 197.394L173.085 199.91ZM184.121 193.543C184.213 193.589 184.316 193.614 184.419 193.614C184.523 193.614 184.626 193.589 184.718 193.543L188.496 191.365C188.656 191.272 188.642 191.112 188.496 191.013L184.134 188.496C184.04 188.449 183.937 188.424 183.832 188.424C183.727 188.424 183.623 188.449 183.53 188.496L179.758 190.674C179.599 190.767 179.605 190.92 179.758 191.02L184.121 193.543ZM166.359 203.848C166.452 203.896 166.556 203.921 166.661 203.921C166.766 203.921 166.869 203.896 166.963 203.848L170.734 201.67C170.894 201.577 170.887 201.418 170.734 201.318L166.372 198.802C166.278 198.754 166.175 198.729 166.07 198.729C165.965 198.729 165.861 198.754 165.768 198.802L161.996 200.98C161.83 201.072 161.843 201.232 161.996 201.331L166.359 203.848ZM178.616 196.756C178.709 196.803 178.811 196.828 178.915 196.828C179.019 196.828 179.121 196.803 179.214 196.756L182.992 194.572C183.151 194.479 183.145 194.326 182.992 194.227L178.623 191.703C178.53 191.657 178.428 191.632 178.324 191.632C178.22 191.632 178.118 191.657 178.025 191.703L174.227 193.888C174.068 193.981 174.074 194.134 174.227 194.233L178.616 196.756ZM155.323 210.202C155.416 210.25 155.52 210.275 155.625 210.275C155.73 210.275 155.834 210.25 155.927 210.202L159.705 208.025C159.865 207.932 159.851 207.779 159.705 207.679L155.343 205.156C155.249 205.108 155.146 205.083 155.041 205.083C154.936 205.083 154.832 205.108 154.739 205.156L150.967 207.341C150.808 207.434 150.814 207.586 150.967 207.686L155.323 210.202ZM160.841 207.015C160.934 207.063 161.038 207.088 161.143 207.088C161.248 207.088 161.351 207.063 161.445 207.015L165.217 204.831C165.383 204.744 165.369 204.585 165.217 204.485L160.854 201.969C160.761 201.921 160.657 201.896 160.552 201.896C160.447 201.896 160.343 201.921 160.25 201.969L156.478 204.147C156.312 204.24 156.326 204.392 156.478 204.492L160.841 207.015ZM189.24 188.788C189.334 188.836 189.437 188.861 189.542 188.861C189.647 188.861 189.751 188.836 189.844 188.788L193.616 186.611C193.775 186.518 193.769 186.358 193.616 186.259L192.454 185.595C192.36 185.547 192.257 185.522 192.152 185.522C192.047 185.522 191.943 185.547 191.85 185.595L188.078 187.779C187.919 187.872 187.925 188.025 188.078 188.124L189.24 188.788ZM205.794 179.234C205.887 179.281 205.991 179.306 206.096 179.306C206.201 179.306 206.304 179.281 206.398 179.234L210.169 177.049C210.329 176.956 210.322 176.803 210.169 176.704L209.007 176.04C208.914 175.992 208.81 175.967 208.705 175.967C208.6 175.967 208.497 175.992 208.403 176.04L204.632 178.218C204.466 178.311 204.479 178.47 204.632 178.57L205.794 179.234ZM214.963 184.546C215.056 184.592 215.158 184.617 215.262 184.617C215.366 184.617 215.468 184.592 215.561 184.546L219.339 182.368C219.499 182.275 219.492 182.115 219.339 182.016L214.97 179.499C214.877 179.452 214.775 179.428 214.671 179.428C214.567 179.428 214.465 179.452 214.372 179.499L210.594 181.677C210.435 181.77 210.442 181.929 210.594 182.029L214.963 184.546ZM228.721 198.536L232.493 196.358C232.659 196.265 232.646 196.112 232.493 196.013L228.131 193.49C228.037 193.442 227.933 193.417 227.828 193.417C227.723 193.417 227.62 193.442 227.526 193.49L223.768 195.641C223.602 195.734 223.615 195.893 223.768 195.993L228.131 198.509C228.22 198.559 228.32 198.588 228.423 198.592C228.525 198.597 228.628 198.578 228.721 198.536V198.536ZM194.725 185.615C194.818 185.662 194.922 185.687 195.027 185.687C195.132 185.687 195.235 185.662 195.329 185.615L199.1 183.437C199.26 183.344 199.253 183.184 199.1 183.085L197.938 182.421C197.845 182.373 197.741 182.348 197.636 182.348C197.531 182.348 197.428 182.373 197.334 182.421L193.543 184.592C193.383 184.685 193.39 184.838 193.543 184.937L194.725 185.615ZM149.805 213.396C149.899 213.444 150.002 213.469 150.107 213.469C150.212 213.469 150.316 213.444 150.409 213.396L154.187 211.218C154.347 211.125 154.334 210.973 154.187 210.873L149.825 208.35C149.731 208.302 149.628 208.277 149.523 208.277C149.418 208.277 149.314 208.302 149.221 208.35L145.416 210.488C145.257 210.581 145.263 210.74 145.416 210.84L149.805 213.396Z" fill="#455A64"/>
<path d="M174.274 246.503L211.524 224.996C212.154 224.676 212.852 224.509 213.559 224.509C214.266 224.509 214.964 224.676 215.594 224.996L236.955 237.327C238.077 237.991 238.077 239.027 236.955 239.671L199.698 261.184C199.068 261.502 198.372 261.667 197.666 261.667C196.961 261.667 196.265 261.502 195.634 261.184L174.274 248.847C173.151 248.203 173.151 247.147 174.274 246.503Z" fill="#263238"/>
<path d="M153.517 132.262L159.36 122.09L137.521 109.407C133.862 107.316 128.816 107.628 123.245 110.848C111.997 117.276 102.92 132.973 102.92 145.887C102.92 152.355 105.191 156.897 108.896 159.001L130.914 171.783L136.89 161.332C145.449 154.712 152.195 142.966 153.517 132.262Z" fill="#455A64"/>
<path d="M145.157 123.584C133.975 130.038 124.912 145.735 124.912 158.649C124.912 171.564 133.975 176.79 145.157 170.336C156.339 163.882 165.402 148.178 165.402 135.27C165.402 122.362 156.339 117.123 145.157 123.584Z" fill="#263238"/>
<path d="M165.728 138.776L171.239 129.135L160.336 122.84C156.87 120.848 152.082 121.147 146.804 124.201C136.18 130.317 127.621 145.19 127.621 157.401C127.621 163.53 129.779 167.833 133.258 169.831L144.333 176.225L149.997 166.319C158.078 160.09 164.473 148.935 165.728 138.776Z" fill="#F5F5F5"/>
<path d="M128.192 151.505C127.796 153.455 127.591 155.438 127.581 157.428C127.581 163.556 129.739 167.859 133.218 169.858L144.294 176.252L149.958 166.345C150.509 165.927 151.047 165.475 151.584 165.017L128.192 151.505Z" fill="#EBEBEB"/>
<path d="M157.799 130.569C147.175 136.691 138.616 151.565 138.616 163.802C138.616 176.04 147.209 180.993 157.799 174.878C168.39 168.762 176.989 153.882 176.989 141.678C176.989 129.473 168.397 124.453 157.799 130.569Z" fill="#E0E0E0"/>
<path d="M252.054 206.896C249.724 208.615 244.538 207.248 244.212 207.168C244.465 207.274 248.502 209.16 249.524 213.197C249.896 214.718 248.708 216.517 247.625 217.254C244.046 219.704 238.761 217.174 235.899 215.621C237.05 216.74 237.936 218.1 238.495 219.605C239.013 221.318 238.708 223.204 237.353 224.087C234.438 225.986 230.434 226.138 217.467 218.363C217.959 219.053 218.268 219.858 218.363 220.7C218.37 220.769 218.37 220.838 218.363 220.906C218.366 221.314 218.273 221.717 218.091 222.081C217.986 222.286 217.854 222.476 217.699 222.646C217.203 223.159 216.587 223.54 215.906 223.755C211.51 225.355 199.751 217.779 191.776 212.792C183.802 207.805 172.52 199.751 166.949 194.592C158.782 187.042 160.044 183.47 152.156 177.182C149.788 175.326 147.296 173.633 144.699 172.115C144.466 172.009 141.598 170.23 139.168 168.702C138.797 167.1 138.617 165.46 138.63 163.815C138.627 162.875 138.681 161.935 138.789 161C139.945 149.387 148.019 136.239 157.813 130.589C159.421 129.64 161.15 128.911 162.952 128.424C165.522 130.051 169.114 132.322 169.353 132.481C171.551 134.033 173.906 135.351 176.378 136.412C177.573 136.91 178.735 137.322 179.937 137.7C183.503 138.829 195.322 141.558 202.055 144.048C208.788 146.538 214.99 149.36 217.579 151.013C220.169 152.667 227.207 161.352 232.002 164.977C236.796 168.603 237.314 171.485 233.157 172.281C229 173.078 222.958 172.872 217.885 169.094C212.812 165.316 211.198 164.001 209.459 164.121C207.719 164.24 211.544 167.594 213.841 169.732C215.35 171.223 216.748 172.823 218.024 174.519C219.167 175.98 220.421 177.35 221.776 178.616C224.472 181.133 229.033 185.156 233.336 187.806C240.016 191.923 247.765 196.239 250.6 198.868C253.435 201.497 254.465 205.123 252.054 206.896Z" fill="#FFA8A7"/>
<path d="M251.238 204.857C249.617 205.793 247.38 205.448 243.715 204.14C240.049 202.832 231.205 198.231 227.978 196.365C226.138 195.309 218.98 191.126 213.157 187.733C213.08 187.683 212.986 187.667 212.896 187.687C212.807 187.707 212.728 187.761 212.679 187.839C212.63 187.916 212.613 188.01 212.633 188.1C212.653 188.19 212.708 188.268 212.785 188.317C217.892 191.816 224.153 196.066 226.935 197.779C233.164 201.617 238.323 204.153 244.199 207.175C244.199 207.175 249.644 208.682 252.054 206.909C253.608 205.76 253.714 203.841 252.838 201.916C252.829 202.499 252.679 203.071 252.4 203.584C252.121 204.096 251.722 204.533 251.238 204.857V204.857Z" fill="#F28F8F"/>
<path d="M246.835 215.886C243.861 216.736 238.867 214.173 236.875 213.151C234.883 212.128 221.066 204.711 218.755 203.323L205.475 195.355C205.398 195.306 205.312 195.272 205.223 195.256C205.133 195.24 205.041 195.242 204.952 195.261C204.863 195.281 204.778 195.317 204.703 195.37C204.629 195.422 204.565 195.488 204.515 195.565C204.466 195.641 204.432 195.727 204.416 195.817C204.4 195.906 204.402 195.999 204.421 196.088C204.441 196.177 204.477 196.261 204.529 196.336C204.581 196.411 204.648 196.475 204.725 196.524C211.544 201.172 219.764 205.734 223.728 207.932C227.944 210.212 231.995 212.783 235.853 215.627C238.715 217.181 244 219.718 247.579 217.261C248.668 216.524 249.85 214.724 249.478 213.204C249.498 213.197 249.445 215.136 246.835 215.886Z" fill="#F28F8F"/>
<path d="M237.327 224.073C238.549 223.277 238.914 221.656 238.588 220.089C238.568 220.728 238.319 221.337 237.886 221.807C237.453 222.276 236.866 222.574 236.231 222.646C233.887 223.018 231.769 222.473 228.927 221.471C226.085 220.468 217.267 214.904 214.439 213.35C212.672 212.38 202.394 205.94 194.91 201.232C194.452 200.94 194.366 201.577 194.817 201.896C200.369 205.568 203.396 207.779 205.913 209.545C210.601 212.832 215.129 215.72 217.42 218.363C230.408 226.125 234.392 225.972 237.327 224.073Z" fill="#F28F8F"/>
<path d="M218.35 220.893C218.353 221.301 218.26 221.703 218.078 222.068C217.973 222.273 217.841 222.463 217.686 222.633C217.19 223.146 216.574 223.527 215.893 223.741C211.497 225.342 199.738 217.765 191.763 212.779C183.789 207.792 172.507 199.738 166.936 194.579C158.769 187.029 160.031 183.457 152.142 177.169C149.774 175.313 147.283 173.62 144.686 172.102C144.453 171.996 141.585 170.216 139.154 168.689C138.784 167.087 138.603 165.447 138.617 163.802C138.614 162.861 138.668 161.921 138.776 160.987C146.385 165.701 155.655 170.947 158.65 173.868C158.756 173.975 158.855 174.068 158.948 174.167C162.819 178.025 164.26 181.989 166.916 188.204C169.679 194.579 180.714 201.338 191.75 209.114C202.786 216.889 210.282 221.258 213.828 222.281C214.379 222.451 214.951 222.54 215.528 222.546C216.137 222.606 216.747 222.453 217.257 222.114C217.766 221.776 218.143 221.271 218.323 220.687C218.35 220.74 218.35 220.82 218.35 220.893Z" fill="#F28F8F"/>
<path d="M164.579 129.48L162.939 128.444C161.136 128.931 159.408 129.659 157.8 130.609C148.006 136.226 139.931 149.4 138.776 160.987C138.668 161.921 138.614 162.861 138.617 163.802C138.603 165.447 138.784 167.087 139.154 168.689C141.585 170.216 144.466 172.009 144.686 172.102C145.622 172.667 146.485 173.204 147.295 173.722C147.441 171.405 147.567 168.968 147.654 166.418C148.63 137.674 164.579 129.48 164.579 129.48Z" fill="#F28F8F"/>
<path opacity="0.5" d="M213.841 169.725C211.537 167.58 207.726 164.24 209.465 164.114C205.568 164.307 201.245 168.968 190.468 169.838C179.691 170.708 169.692 165.9 169.692 165.9C169.692 165.9 179.353 171.478 180.727 180.243C181.551 185.455 179.957 190.681 185.335 190.867C190.906 191.059 196.019 188.277 202.48 178.835C207.719 171.179 214.717 171.119 218.808 175.482C218.609 175.21 218.303 174.871 218.024 174.512C216.748 172.817 215.35 171.217 213.841 169.725Z" fill="#F28F8F"/>
<path d="M216.603 181.836C213.808 187.069 201.484 200.189 189.34 202.739C195.665 202.711 201.778 200.454 206.604 196.365C214.904 189.466 216.603 181.836 216.603 181.836Z" fill="#F28F8F"/>
<path d="M230.19 94.6134L232.547 89.6865L221.319 83.2059C220.099 82.4926 218.791 81.9434 217.427 81.5724C216.956 81.4463 216.471 81.34 215.987 81.2537C213.575 80.8585 211.109 80.9261 208.722 81.4529C207.835 81.6372 206.96 81.8722 206.1 82.1568C205.179 82.4564 204.275 82.8044 203.391 83.1992C202.198 83.7224 201.039 84.3166 199.918 84.9788C198.669 85.7081 197.459 86.5015 196.292 87.3559C195.407 88.0155 194.522 88.7127 193.636 89.4475C180.821 100.264 170.742 119.56 168.185 138.112C168.008 139.374 167.869 140.631 167.767 141.884C167.614 143.676 167.541 145.456 167.548 147.196C167.548 148.636 167.608 150.031 167.72 151.372C167.813 152.534 167.946 153.663 168.112 154.752C168.278 155.841 168.484 156.877 168.716 157.886C169.339 160.669 170.349 163.352 171.718 165.854C171.99 166.352 172.282 166.83 172.581 167.288C173.802 169.19 175.348 170.863 177.149 172.228C177.689 172.627 178.252 172.992 178.836 173.324V173.324L189.5 179.473L191.658 174.964C192.235 174.838 192.813 174.692 193.397 174.513C195.772 173.779 198.051 172.77 200.19 171.505C201.566 170.694 202.896 169.807 204.174 168.849C205.893 167.56 207.529 166.165 209.074 164.672C219.771 154.38 228.191 138.278 231.272 122.249C231.732 119.898 232.071 117.524 232.288 115.138C232.46 113.146 232.553 111.22 232.547 109.294C232.554 106.519 232.332 103.747 231.883 101.008C231.514 98.8292 230.947 96.6889 230.19 94.6134Z" fill="#4B7DCC"/>
<path opacity="0.25" d="M170.535 127.136L192.381 139.752L195.143 131.784L173.271 119.168C172.235 121.771 171.312 124.44 170.535 127.136Z" fill="white"/>
<path opacity="0.25" d="M221.318 83.2059C220.098 82.4926 218.79 81.9434 217.427 81.5724C216.955 81.4463 216.47 81.34 215.986 81.2537C213.574 80.8585 211.108 80.9261 208.722 81.4529C208.403 81.5193 208.058 81.599 207.759 81.6853L230.209 94.6466C230.206 94.629 230.206 94.6111 230.209 94.5935L232.566 89.6666L221.318 83.2059Z" fill="white"/>
<path opacity="0.25" d="M219.976 114.314L222.739 110.994L190.428 92.4023C189.432 93.3939 188.456 94.4319 187.5 95.5164L219.976 114.314Z" fill="white"/>
<path opacity="0.25" d="M180.834 104.401L208.941 120.629L211.935 112.8L185.701 97.6479C183.957 99.8088 182.332 102.063 180.834 104.401V104.401Z" fill="white"/>
<path opacity="0.4" d="M221.318 83.2059C220.098 82.4926 218.79 81.9434 217.427 81.5724C216.955 81.4463 216.47 81.34 215.986 81.2537C213.574 80.8585 211.108 80.9261 208.722 81.4529C207.835 81.6372 206.959 81.8722 206.099 82.1568C205.178 82.4564 204.274 82.8044 203.39 83.1992C202.198 83.7224 201.038 84.3166 199.917 84.9788C198.668 85.7081 197.458 86.5015 196.292 87.3559C195.406 88.0154 194.521 88.7127 193.635 89.4475C181.683 99.5204 172.142 116.937 168.815 134.254L213.409 160.024C222.041 149.871 228.622 136.04 231.271 122.256C231.731 119.904 232.07 117.531 232.287 115.144C232.46 113.152 232.553 111.227 232.546 109.301C232.553 106.525 232.331 103.754 231.882 101.014C231.52 98.8342 230.96 96.6917 230.209 94.6134L232.566 89.6865L221.318 83.2059Z" fill="white"/>
<path opacity="0.1" d="M189.499 179.473L191.657 174.964C192.235 174.838 192.812 174.692 193.397 174.513C195.771 173.779 198.051 172.77 200.189 171.505C201.565 170.694 202.895 169.807 204.173 168.849C205.892 167.56 207.529 166.165 209.074 164.672C210.597 163.198 212.045 161.646 213.41 160.024L168.815 134.274C168.567 135.549 168.346 136.824 168.151 138.099C167.957 139.374 167.817 140.631 167.733 141.87C167.58 143.663 167.507 145.443 167.514 147.182C167.514 148.623 167.574 150.018 167.686 151.359C167.779 152.521 167.912 153.65 168.078 154.739C168.244 155.828 168.45 156.863 168.682 157.873C169.305 160.656 170.315 163.338 171.684 165.841C171.956 166.339 172.248 166.817 172.547 167.275C173.768 169.177 175.314 170.849 177.115 172.215C177.655 172.613 178.219 172.979 178.802 173.311V173.311L189.499 179.473Z" fill="black"/>
<path opacity="0.1" d="M171.717 165.841C171.989 166.339 172.281 166.817 172.58 167.275C173.801 169.177 175.347 170.849 177.148 172.215C177.688 172.613 178.252 172.979 178.835 173.311V173.311L189.499 179.459L191.657 174.951H191.743L191.902 173.105L169.32 160.024C169.905 162.044 170.709 163.995 171.717 165.841V165.841Z" fill="black"/>
<path d="M242.898 107.382C242.442 104.549 241.629 101.785 240.481 99.1552C239.109 95.873 236.93 92.9905 234.146 90.7755C232.454 89.471 230.52 88.5141 228.456 87.9602C227.984 87.834 227.5 87.7344 227.015 87.6481C224.603 87.2472 222.138 87.3126 219.751 87.8406C218.864 88.028 217.988 88.2652 217.128 88.5511C216.209 88.8474 215.307 89.1931 214.425 89.587C213.234 90.1153 212.072 90.7094 210.946 91.3665C209.697 92.0973 208.487 92.8929 207.321 93.7502C206.431 94.4142 205.541 95.0782 204.665 95.8352C191.849 106.652 181.77 125.928 179.214 144.467C179.032 145.737 178.893 146.994 178.795 148.238C178.645 150.009 178.572 151.779 178.576 153.55C178.576 154.984 178.643 156.379 178.749 157.72C178.842 158.889 178.975 160.011 179.141 161.1C179.307 162.189 179.512 163.231 179.751 164.24C180.373 167.023 181.381 169.705 182.746 172.208C183.025 172.7 183.31 173.178 183.609 173.636C184.829 175.541 186.378 177.214 188.184 178.576C190.797 180.543 193.942 181.674 197.208 181.823C199.65 181.934 202.093 181.614 204.426 180.88C206.801 180.15 209.081 179.14 211.218 177.872C212.595 177.063 213.926 176.176 215.202 175.216C216.922 173.929 218.559 172.534 220.103 171.04C230.8 160.748 239.219 144.646 242.307 128.624C242.749 126.238 243.086 123.865 243.316 121.505C243.495 119.513 243.582 117.588 243.575 115.662C243.581 112.888 243.355 110.118 242.898 107.382V107.382Z" fill="#4B7DCC"/>
<path opacity="0.05" d="M179.858 140.622C179.612 141.903 179.393 143.185 179.194 144.466C178.994 145.748 178.875 146.99 178.775 148.238C178.625 150.009 178.552 151.779 178.556 153.55C178.556 154.984 178.623 156.379 178.729 157.72C178.822 158.889 178.955 160.011 179.121 161.1C179.287 162.189 179.492 163.231 179.731 164.24C180.353 167.023 181.361 169.705 182.726 172.208C183.005 172.7 183.29 173.178 183.589 173.636C184.809 175.541 186.358 177.214 188.164 178.576C190.782 180.546 193.935 181.678 197.208 181.823C199.65 181.934 202.093 181.614 204.426 180.88C206.801 180.15 209.081 179.14 211.218 177.872C212.42 177.168 213.595 176.385 214.764 175.535L179.858 140.622Z" fill="black"/>
<path opacity="0.05" d="M180.362 166.505C180.952 168.488 181.753 170.403 182.753 172.215C183.032 172.706 183.317 173.184 183.616 173.643C184.835 175.548 186.385 177.221 188.191 178.583C190.334 180.192 192.844 181.242 195.495 181.637L180.362 166.505Z" fill="black"/>
<path opacity="0.25" d="M184.3 125.536C183.257 128.152 182.348 130.848 181.571 133.504L219.591 171.525L220.109 171.04C221.749 169.446 223.301 167.763 224.757 166L184.3 125.536Z" fill="white"/>
<path opacity="0.25" d="M196.73 104.022C194.997 106.182 193.384 108.434 191.896 110.769L233.728 152.601C235.056 150.064 236.324 147.408 237.44 144.752L196.73 104.022Z" fill="white"/>
<path opacity="0.25" d="M201.477 98.7634C200.475 99.7594 199.485 100.808 198.529 101.897L238.542 141.91C239.1 140.416 239.624 138.909 240.102 137.382L201.477 98.7634Z" fill="white"/>
<path opacity="0.25" d="M243.489 112.78C243.449 112.004 243.382 111.247 243.309 110.503C243.309 110.257 243.263 110.005 243.236 109.766C243.21 109.527 243.177 109.261 243.143 109.009C243.07 108.458 242.991 107.913 242.898 107.382C242.442 104.549 241.629 101.785 240.481 99.1552C239.109 95.873 236.93 92.9905 234.146 90.7755C232.454 89.471 230.52 88.5141 228.456 87.9602C227.984 87.834 227.506 87.7344 227.015 87.6481C224.603 87.2472 222.138 87.3126 219.751 87.8406C219.432 87.907 219.087 87.9934 218.781 88.073L243.489 112.78Z" fill="white"/>
<path d="M235.302 120.642C235.302 137.747 225.342 157.501 212.726 165.9C212.194 166.252 211.65 166.598 211.099 166.91C197.726 174.632 186.889 166.438 186.889 148.603C186.889 130.768 197.726 110.051 211.099 102.329C211.65 102.017 212.194 101.731 212.726 101.466C225.328 95.2973 235.302 103.538 235.302 120.642Z" fill="#4B7DCC"/>
<path opacity="0.4" d="M235.302 120.642C235.302 137.747 225.342 157.501 212.726 165.9C212.194 166.252 211.65 166.598 211.099 166.91C197.726 174.632 186.889 166.438 186.889 148.603C186.889 130.768 197.726 110.051 211.099 102.329C211.65 102.017 212.194 101.731 212.726 101.466C225.328 95.2973 235.302 103.538 235.302 120.642Z" fill="black"/>
<path d="M234.226 121.266C234.226 121.811 234.226 122.369 234.186 122.926C233.575 138.862 224.286 156.75 212.633 164.506L212.321 164.712C211.909 164.977 211.497 165.236 211.079 165.475C208.853 166.824 206.386 167.726 203.815 168.131C198.383 168.875 193.855 166.491 191.026 161.624C189.379 158.762 188.324 155.044 188.031 150.589C187.972 149.752 187.945 148.889 187.945 147.999C187.945 147.109 187.945 146.359 188.018 145.529C188.115 143.766 188.311 142.011 188.602 140.27C190.648 127.953 197.234 115.383 205.574 107.84C206.737 106.786 207.971 105.812 209.266 104.925C209.864 104.52 210.468 104.135 211.079 103.783C211.69 103.431 212.128 103.206 212.633 102.953L213.071 102.754C216.537 101.14 219.777 100.676 222.639 101.227C227.506 102.163 231.271 106.047 233.057 112.249C233.866 115.186 234.26 118.221 234.226 121.266V121.266Z" fill="#4B7DCC"/>
<path opacity="0.7" d="M234.226 121.266C234.226 121.811 234.226 122.369 234.186 122.926C233.575 138.862 224.286 156.75 212.633 164.506L212.321 164.712C211.909 164.977 211.497 165.236 211.079 165.475C208.853 166.824 206.386 167.726 203.815 168.131C198.383 168.875 193.855 166.491 191.026 161.624C189.379 158.762 188.324 155.044 188.031 150.589C187.972 149.752 187.945 148.889 187.945 147.999C187.945 147.109 187.945 146.359 188.018 145.529C188.115 143.766 188.311 142.011 188.602 140.27C190.648 127.953 197.234 115.383 205.574 107.84C206.737 106.786 207.971 105.812 209.266 104.925C209.864 104.52 210.468 104.135 211.079 103.783C211.69 103.431 212.128 103.206 212.633 102.953L213.071 102.754C216.537 101.14 219.777 100.676 222.639 101.227C227.506 102.163 231.271 106.047 233.057 112.249C233.866 115.186 234.26 118.221 234.226 121.266V121.266Z" fill="black"/>
<path d="M230.348 120.695C230.348 120.138 230.348 119.58 230.348 119.029C230.385 115.981 229.994 112.944 229.186 110.005C228.137 106.386 226.417 103.564 224.206 101.645C223.683 101.464 223.149 101.32 222.606 101.214C219.744 100.662 216.504 101.127 213.038 102.741L212.599 102.94C212.095 103.192 211.57 103.471 211.046 103.77C210.521 104.069 209.83 104.507 209.233 104.912C207.938 105.799 206.704 106.773 205.541 107.827C197.208 115.37 190.647 127.94 188.576 140.257C188.284 141.998 188.089 143.753 187.991 145.516C187.938 146.346 187.918 147.162 187.918 147.986C187.918 148.809 187.918 149.739 188.005 150.575C188.297 155.031 189.333 158.749 190.999 161.611C191.8 163.02 192.83 164.286 194.047 165.356C195.943 165.996 197.964 166.178 199.943 165.887C202.516 165.479 204.985 164.577 207.214 163.231C207.633 162.992 208.044 162.733 208.449 162.468L208.768 162.262C220.448 154.513 229.744 136.638 230.348 120.695Z" fill="#4B7DCC"/>
<path opacity="0.6" d="M230.348 120.695C230.348 120.138 230.348 119.58 230.348 119.029C230.385 115.981 229.994 112.944 229.186 110.005C228.137 106.386 226.417 103.564 224.206 101.645C223.683 101.464 223.149 101.32 222.606 101.214C219.744 100.662 216.504 101.127 213.038 102.741L212.599 102.94C212.095 103.192 211.57 103.471 211.046 103.77C210.521 104.069 209.83 104.507 209.233 104.912C207.938 105.799 206.704 106.773 205.541 107.827C197.208 115.37 190.647 127.94 188.576 140.257C188.284 141.998 188.089 143.753 187.991 145.516C187.938 146.346 187.918 147.162 187.918 147.986C187.918 148.809 187.918 149.739 188.005 150.575C188.297 155.031 189.333 158.749 190.999 161.611C191.8 163.02 192.83 164.286 194.047 165.356C195.943 165.996 197.964 166.178 199.943 165.887C202.516 165.479 204.985 164.577 207.214 163.231C207.633 162.992 208.044 162.733 208.449 162.468L208.768 162.262C220.448 154.513 229.744 136.638 230.348 120.695Z" fill="black"/>
<path d="M227.015 87.648C224.944 87.3258 222.835 87.3527 220.773 87.7277C219.751 87.9297 218.741 88.1846 217.745 88.4913C217.494 88.5559 217.245 88.6334 217.002 88.7237L216.278 89.0092L214.817 89.5869C212.909 90.4216 211.078 91.4237 209.346 92.5815C208.476 93.1725 207.626 93.7435 206.823 94.4142C206.019 95.0848 205.149 95.7023 204.406 96.4062C203.662 97.11 202.832 97.7939 202.102 98.531C201.371 99.268 200.627 99.9984 199.93 100.775L197.872 103.106L195.88 105.576L194.034 108.099C193.43 108.949 192.872 109.832 192.288 110.695C191.172 112.455 190.083 114.235 189.107 116.074L188.357 117.448L187.693 118.849C187.228 119.786 186.75 120.709 186.365 121.671C185.495 123.564 184.718 125.503 183.954 127.442L182.912 130.39C182.58 131.379 182.294 132.382 181.982 133.378C181.67 134.374 181.438 135.37 181.159 136.392C180.88 137.415 180.668 138.384 180.449 139.433L180.123 140.967L179.864 142.508C179.698 143.544 179.506 144.546 179.413 145.595C179.32 146.644 179.167 147.68 179.074 148.709C178.981 149.739 178.921 150.788 178.888 151.824C178.888 152.348 178.888 152.866 178.855 153.391C178.822 153.915 178.888 154.426 178.901 154.944C178.948 155.987 178.955 157.056 179.034 158.065L179.379 161.173L179.957 164.254V164.294V164.254C180.56 167.008 181.532 169.668 182.846 172.162C183.197 172.76 183.543 173.39 183.928 173.975C184.313 174.559 184.738 175.13 185.183 175.674C186.077 176.77 187.095 177.757 188.217 178.616C187.073 177.779 186.03 176.812 185.11 175.734C184.652 175.196 184.213 174.639 183.782 174.054C183.35 173.47 183.031 172.859 182.646 172.255C181.26 169.772 180.228 167.108 179.579 164.34V164.294V164.327L178.961 161.246L178.569 158.118C178.47 157.043 178.457 156.02 178.397 154.971C178.397 154.44 178.344 153.935 178.33 153.391C178.317 152.846 178.33 152.335 178.33 151.81C178.33 150.761 178.403 149.712 178.476 148.663C178.549 147.614 178.696 146.578 178.802 145.529C178.908 144.48 179.081 143.437 179.247 142.408L179.499 140.854L179.818 139.314C180.03 138.285 180.243 137.255 180.522 136.24C180.8 135.224 181.013 134.194 181.338 133.198C181.664 132.202 181.929 131.206 182.261 130.184L183.304 127.209L184.459 124.281C184.831 123.298 185.302 122.355 185.721 121.392C186.139 120.43 186.624 119.493 187.089 118.557L187.792 117.143L188.576 115.735C189.572 113.883 190.674 112.09 191.81 110.324C192.394 109.454 192.965 108.571 193.576 107.714L195.448 105.178L197.44 102.734C198.104 101.937 198.841 101.167 199.545 100.39C200.249 99.6133 201.033 98.8962 201.77 98.1459C202.507 97.3955 203.33 96.7448 204.107 96.041C204.884 95.3371 205.747 94.713 206.57 94.0822C207.397 93.4289 208.256 92.8194 209.147 92.2562C210.908 91.1008 212.779 90.1201 214.731 89.3279L216.198 88.7768L216.935 88.5046C217.186 88.4201 217.441 88.3492 217.699 88.2921C218.708 88.0012 219.732 87.7662 220.767 87.5883C222.838 87.2576 224.95 87.2778 227.015 87.648V87.648Z" fill="#F5F5F5"/>
<path d="M205.707 109.846L209.704 112.163L215.448 108.843L211.451 106.532L205.707 109.846Z" fill="#4B7DCC"/>
<path opacity="0.2" d="M205.707 109.846L209.704 112.163L215.448 108.843L211.451 106.532L205.707 109.846Z" fill="black"/>
<path d="M207.706 113.312L203.708 111.001L197.958 114.314L201.962 116.632L207.706 113.312Z" fill="#4B7DCC"/>
<path opacity="0.2" d="M207.706 113.312L203.708 111.001L197.958 114.314L201.962 116.632L207.706 113.312Z" fill="black"/>
<path d="M197.958 118.438L201.962 120.748L197.958 123.066L193.954 120.748L197.958 118.438Z" fill="#4B7DCC"/>
<path opacity="0.2" d="M197.958 118.438L201.962 120.748L197.958 123.066L193.954 120.748L197.958 118.438Z" fill="black"/>
<path d="M193.954 128.404L197.958 130.722V123.066L193.954 120.748V128.404Z" fill="#4B7DCC"/>
<path opacity="0.35" d="M193.954 128.404L197.958 130.722V123.066L193.954 120.748V128.404Z" fill="black"/>
<path d="M197.958 114.314V118.438L201.962 120.748V116.632L197.958 114.314Z" fill="#4B7DCC"/>
<path opacity="0.35" d="M197.958 114.314V118.438L201.962 120.748V116.632L197.958 114.314Z" fill="black"/>
<path d="M205.707 109.846V112.156L207.706 113.312V117.435L209.704 116.28V112.163L205.707 109.846Z" fill="#4B7DCC"/>
<path opacity="0.35" d="M205.707 109.846V112.156L207.706 113.312V117.435L209.704 116.28V112.163L205.707 109.846Z" fill="black"/>
<path d="M193.954 152.116L197.958 154.433L200.681 152.859L196.683 150.549L193.954 152.116Z" fill="#4B7DCC"/>
<path opacity="0.2" d="M193.954 152.116L197.958 154.433L200.681 152.859L196.683 150.549L193.954 152.116Z" fill="black"/>
<path d="M196.683 150.549L200.681 152.859V129.148L197.958 130.722L196.683 129.985V150.549Z" fill="#4B7DCC"/>
<path opacity="0.45" d="M196.683 150.549L200.681 152.859V129.148L197.958 130.722L196.683 129.985V150.549Z" fill="black"/>
<path d="M193.954 152.116L197.958 154.433V162.096L193.954 159.778V152.116Z" fill="#4B7DCC"/>
<path opacity="0.35" d="M193.954 152.116L197.958 154.433V162.096L193.954 159.778V152.116Z" fill="black"/>
<path d="M201.962 159.778V163.145L199.047 161.465L201.962 159.778Z" fill="#4B7DCC"/>
<path opacity="0.45" d="M201.962 159.778V163.145L199.047 161.465L201.962 159.778Z" fill="black"/>
<path d="M209.704 155.31V158.676L207.706 157.521V156.465L209.704 155.31Z" fill="#4B7DCC"/>
<path opacity="0.45" d="M209.704 155.31V158.676L207.706 157.521V156.465L209.704 155.31Z" fill="black"/>
<path d="M217.307 112.409C217.544 112.367 217.784 112.345 218.024 112.342C218.777 112.316 219.523 112.488 220.189 112.84L216.305 110.589C216.033 110.434 215.746 110.307 215.448 110.211V113.006C215.801 112.837 216.168 112.697 216.544 112.588C216.725 112.534 216.909 112.49 217.095 112.455L217.307 112.409Z" fill="#4B7DCC"/>
<path opacity="0.2" d="M217.307 112.409C217.544 112.367 217.784 112.345 218.024 112.342C218.777 112.316 219.523 112.488 220.189 112.84L216.305 110.589C216.033 110.434 215.746 110.307 215.448 110.211V113.006C215.801 112.837 216.168 112.697 216.544 112.588C216.725 112.534 216.909 112.49 217.095 112.455L217.307 112.409Z" fill="black"/>
<path d="M218.456 138.039V138.703C218.456 140.861 217.128 143.351 215.521 144.307L207.46 148.955L206.418 149.553V144.905L211.531 141.957C213.124 141.027 214.439 138.557 214.465 136.419L214.817 136.213L215.521 135.801C217.128 134.885 218.456 135.888 218.456 138.039Z" fill="#4B7DCC"/>
<path opacity="0.45" d="M218.456 138.039V138.703C218.456 140.861 217.128 143.351 215.521 144.307L207.46 148.955L206.418 149.553V144.905L211.531 141.957C213.124 141.027 214.439 138.557 214.465 136.419L214.817 136.213L215.521 135.801C217.128 134.885 218.456 135.888 218.456 138.039Z" fill="black"/>
<path d="M217.447 122.966V123.564C217.447 125.489 216.271 127.734 214.791 128.57L206.391 133.418V128.77L210.787 126.233C211.513 125.719 212.121 125.054 212.568 124.284C213.014 123.514 213.29 122.657 213.376 121.771L214.791 120.954C216.271 120.184 217.447 121.034 217.447 122.966Z" fill="#4B7DCC"/>
<path opacity="0.45" d="M217.447 122.966V123.564C217.447 125.489 216.271 127.734 214.791 128.57L206.391 133.418V128.77L210.787 126.233C211.513 125.719 212.121 125.054 212.568 124.284C213.014 123.514 213.29 122.657 213.376 121.771L214.791 120.954C216.271 120.184 217.447 121.034 217.447 122.966Z" fill="black"/>
<path d="M221.504 127.913C222.57 125.496 223.143 122.891 223.19 120.25V119.646C223.19 113.823 219.797 110.928 215.448 113.006V108.843L209.704 112.163V116.28L207.712 117.435V113.312L201.969 116.632V120.748L197.985 123.066V130.722L200.707 129.148V152.859L197.985 154.433V162.089L201.969 159.778V163.145L207.712 159.825V156.458L209.704 155.303V158.696L215.448 155.376V151.99L215.534 151.943C220.315 149.181 224.213 141.744 224.213 135.343V134.679C224.213 131.578 223.224 129.102 221.504 127.913ZM217.447 122.966V123.564C217.447 125.489 216.271 127.74 214.791 128.57L206.391 133.424V125.835L207.434 125.23L214.791 120.981C216.271 120.184 217.447 121.041 217.447 122.966V122.966ZM206.424 141.08L214.824 136.233L215.534 135.821C217.148 134.885 218.469 135.881 218.469 138.039V138.703C218.469 140.861 217.141 143.351 215.534 144.314L207.467 148.962L206.424 149.566V141.08Z" fill="#4B7DCC"/>
<path opacity="0.3" d="M215.448 113.006V110.835L214.186 109.573L210.329 111.804L222.719 124.168C223.022 122.875 223.18 121.552 223.19 120.224V119.62C223.19 119.234 223.19 118.863 223.144 118.504L217.068 112.429C216.506 112.554 215.962 112.748 215.448 113.006V113.006Z" fill="white"/>
<path opacity="0.3" d="M217.44 122.84C217.44 122.88 217.44 122.926 217.44 122.973V123.57C217.44 125.496 216.265 127.747 214.784 128.577L212.719 129.772L223.423 140.476C223.902 138.816 224.155 137.098 224.173 135.37V134.706C224.173 131.558 223.184 129.082 221.464 127.893C221.563 127.654 221.656 127.408 221.756 127.163L217.44 122.84Z" fill="white"/>
<path opacity="0.3" d="M208.821 148.165L207.467 148.942L206.424 149.546V145.768L200.681 140.024V150.721L207.706 157.747V156.465L209.704 155.31V158.676L215.448 155.356V154.792L208.821 148.165Z" fill="white"/>
<path opacity="0.25" d="M207.945 124.952L214.824 120.968C214.993 120.873 215.171 120.795 215.355 120.735L209.704 115.085V116.266L207.712 117.422V113.298L201.969 116.618V118.956L207.945 124.952Z" fill="white"/>
<path d="M200.681 129.148V152.86C200.747 151.87 200.78 150.868 200.827 149.898C200.873 148.929 200.887 147.906 200.92 146.93C200.979 144.938 201.006 142.979 201.013 141.007C201.019 139.035 201.013 137.023 201.013 135.078C201.013 134.088 200.98 133.086 200.953 132.116L200.867 129.148V128.869L200.641 129.015C199.758 129.586 198.868 130.137 197.985 130.722L200.681 129.148Z" fill="#F5F5F5"/>
<path d="M203.496 115.968C203.994 115.735 204.492 115.483 204.983 115.231C205.475 114.978 205.959 114.706 206.438 114.434C206.763 114.255 207.102 114.062 207.407 113.869C207.407 114.374 207.447 114.872 207.48 115.377C207.48 115.715 207.533 116.041 207.573 116.406C207.613 116.771 207.646 117.07 207.706 117.435V113.312L201.962 116.632C202.221 116.532 202.48 116.419 202.732 116.306C202.985 116.193 203.244 116.087 203.496 115.968Z" fill="#F5F5F5"/>
<path d="M211.238 111.499C211.736 111.26 212.234 111.014 212.726 110.755C213.549 110.33 214.352 109.865 215.149 109.394C215.149 109.905 215.182 110.417 215.222 110.928C215.222 111.273 215.275 111.592 215.315 111.964C215.355 112.336 215.388 112.628 215.448 113.006V108.843L209.704 112.163C209.963 112.063 210.222 111.95 210.475 111.838C210.727 111.725 210.986 111.618 211.238 111.499Z" fill="#F5F5F5"/>
<path d="M217.447 122.966V123.564C217.447 125.489 216.271 127.74 214.791 128.57L206.404 133.418L207.201 133.039C207.692 132.787 208.416 132.448 209.259 131.997C210.103 131.545 211.092 131.034 212.141 130.456L213.748 129.56L214.571 129.088L214.983 128.856C215.133 128.766 215.277 128.666 215.415 128.557C215.947 128.133 216.397 127.615 216.743 127.03C217.069 126.477 217.319 125.883 217.486 125.264C217.647 124.685 217.717 124.084 217.692 123.484C217.705 122.948 217.638 122.413 217.493 121.897C217.368 121.437 217.074 121.041 216.67 120.788C216.358 120.605 215.988 120.545 215.634 120.622C215.417 120.669 215.208 120.75 215.016 120.861L214.824 120.981C216.278 120.184 217.447 121.047 217.447 122.966Z" fill="#F5F5F5"/>
<path d="M218.715 138.53C218.722 137.938 218.635 137.349 218.456 136.784C218.308 136.285 217.979 135.858 217.533 135.589C217.189 135.392 216.783 135.333 216.398 135.423C216.164 135.474 215.94 135.562 215.734 135.682L215.514 135.815H215.568C217.161 134.925 218.456 135.914 218.456 138.052V138.716C218.456 140.874 217.128 143.364 215.521 144.327L207.454 148.975L206.424 149.573L207.281 149.154C207.825 148.869 208.609 148.49 209.545 147.986C210.481 147.481 211.537 146.923 212.712 146.286L214.479 145.297C215.114 144.962 215.727 144.585 216.311 144.168C217.381 143.191 218.138 141.921 218.489 140.516C218.663 139.869 218.739 139.2 218.715 138.53Z" fill="#F5F5F5"/>
<path d="M224.213 135.363V134.699C224.213 131.552 223.224 129.075 221.504 127.886L221.736 128.092C221.952 128.298 222.152 128.52 222.334 128.756C222.954 129.579 223.391 130.526 223.615 131.532C223.781 132.198 223.881 132.878 223.914 133.564C223.954 134.333 223.954 135.105 223.914 135.874C223.904 136.279 223.87 136.682 223.814 137.083C223.768 137.488 223.715 137.9 223.635 138.311C223.556 138.723 223.482 139.141 223.376 139.553C223.27 139.965 223.17 140.376 223.038 140.781C222.905 141.186 222.792 141.598 222.646 141.996C222.5 142.395 222.354 142.793 222.188 143.178C222.022 143.564 221.856 143.949 221.676 144.32C221.507 144.695 221.319 145.061 221.112 145.416C220.926 145.775 220.734 146.113 220.528 146.445C220.322 146.777 220.143 147.109 219.93 147.401C219.547 147.976 219.135 148.53 218.695 149.061C218.27 149.546 217.885 149.991 217.5 150.35C217.181 150.667 216.846 150.969 216.497 151.253C215.893 151.711 215.541 151.963 215.541 151.963C220.315 149.181 224.213 141.744 224.213 135.363Z" fill="#F5F5F5"/>
<path d="M204.685 161.226C203.738 161.808 202.828 162.449 201.962 163.145L207.706 159.825V156.458C207.54 157.511 207.44 158.574 207.407 159.639C206.477 160.135 205.57 160.664 204.685 161.226Z" fill="#F5F5F5"/>
<path d="M215.448 151.99C215.295 153.059 215.229 154.121 215.176 155.183C214.233 155.662 213.317 156.186 212.42 156.744C211.471 157.324 210.564 157.97 209.704 158.676L215.448 155.356V151.99Z" fill="#F5F5F5"/>
</svg>
